<svg id="Layer_1" data-name="Layer 1" xmlns="http://www.w3.org/2000/svg" viewBox="0 0 130.83 130.83"><defs><style>.cls-1{fill:#fff;}.cls-2{fill:none;}</style></defs><title>GE_LOGO_WHITE</title><path class="cls-1" d="M209.42,239.58a65.42,65.42,0,1,1-65.34-65.44A65.4,65.4,0,0,1,209.42,239.58ZM144,177.22a62.32,62.32,0,1,0,62.27,62.35A62.32,62.32,0,0,0,144,177.22Z" transform="translate(-78.58 -174.14)"/><path class="cls-2" d="M144,177.22a62.32,62.32,0,1,1-62.36,62.24A62.38,62.38,0,0,1,144,177.22Zm55.42,81c.09-.27.17-.49.24-.71a58.55,58.55,0,0,0,2.62-15.75,59.91,59.91,0,0,0-1.17-14.2A53.28,53.28,0,0,0,194.31,210a44,44,0,0,0-18-16.58,55.32,55.32,0,0,0-11-3.89,36.27,36.27,0,0,0-10.1-1.29,17,17,0,0,0-6.46,1.3,19.11,19.11,0,0,0-3.87,2.47,20.23,20.23,0,0,1-2.15,1.51,5,5,0,0,1-3.63.57,4.21,4.21,0,0,1-3.44-3.85,5.29,5.29,0,0,1,1.52-4.13,9,9,0,0,1,2.91-2.06,17.13,17.13,0,0,1,6.59-1.54,41.49,41.49,0,0,1,11.22,1c1.45.33,2.87.77,4.35,1.17l.12-.34c-.06-.06-.09-.1-.12-.11l-.5-.19A53.19,53.19,0,0,0,146,181.21,59.47,59.47,0,0,0,132,182.38a53.18,53.18,0,0,0-17.58,6.91,44.22,44.22,0,0,0-16.47,18,55.49,55.49,0,0,0-4.16,12,33.3,33.3,0,0,0-.94,10.43,14.93,14.93,0,0,0,2.78,7.83c.36.49.73.95,1.08,1.44s.85,1.15,1.23,1.76a5.39,5.39,0,0,1,.78,2.91,4.3,4.3,0,0,1-5,4.24,5.69,5.69,0,0,1-3.26-1.61,9.6,9.6,0,0,1-2.2-3.38A18.73,18.73,0,0,1,87,236.51a41.39,41.39,0,0,1,.77-9.75c.34-1.74.82-3.45,1.24-5.17l.07-.37-.49-.1-.49,1.71A59.45,59.45,0,0,0,87,252.2,53,53,0,0,0,94.19,270a44,44,0,0,0,19.22,16.6,54.91,54.91,0,0,0,11.48,3.62,32,32,0,0,0,9.51.62,14.22,14.22,0,0,0,8-3.21c.73-.61,1.48-1.2,2.26-1.76a5.29,5.29,0,0,1,3.42-1,4.52,4.52,0,0,1,4.31,4.37,5.3,5.3,0,0,1-1.47,3.74A8.86,8.86,0,0,1,148,295a17.48,17.48,0,0,1-6.47,1.54,45.25,45.25,0,0,1-15.68-2.06s-.07,0-.15,0l-.13.47c.19.08.33.16.48.21.68.22,1.35.47,2,.66a58.91,58.91,0,0,0,14.46,2A60.47,60.47,0,0,0,156,296.7a53.17,53.17,0,0,0,17.61-6.83,42.82,42.82,0,0,0,15.5-16.09,50.3,50.3,0,0,0,6.1-20.7,21.56,21.56,0,0,0-.41-5.94,14.24,14.24,0,0,0-2.62-5.71c-.62-.82-1.26-1.64-1.86-2.49a5.48,5.48,0,0,1-1-3.48,4.2,4.2,0,0,1,3.86-4.22,5.34,5.34,0,0,1,4.12,1.41,8.49,8.49,0,0,1,1.95,2.54,15.81,15.81,0,0,1,1.55,4.88,32,32,0,0,1,.07,8.46,45.92,45.92,0,0,1-1.83,9.06,2.62,2.62,0,0,0-.06.43Z" transform="translate(-78.58 -174.14)"/><path class="cls-1" d="M199.45,258.17,199,258a2.62,2.62,0,0,1,.06-.43,45.92,45.92,0,0,0,1.83-9.06,32,32,0,0,0-.07-8.46,15.81,15.81,0,0,0-1.55-4.88,8.49,8.49,0,0,0-1.95-2.54,5.34,5.34,0,0,0-4.12-1.41,4.2,4.2,0,0,0-3.86,4.22,5.48,5.48,0,0,0,1,3.48c.6.85,1.24,1.67,1.86,2.49a14.24,14.24,0,0,1,2.62,5.71,21.56,21.56,0,0,1,.41,5.94,50.3,50.3,0,0,1-6.1,20.7,42.82,42.82,0,0,1-15.5,16.09A53.17,53.17,0,0,1,156,296.7a60.47,60.47,0,0,1-13.49,1.18,58.91,58.91,0,0,1-14.46-2c-.69-.19-1.36-.44-2-.66-.15,0-.29-.13-.48-.21l.13-.47c.08,0,.12,0,.15,0a45.25,45.25,0,0,0,15.68,2.06A17.48,17.48,0,0,0,148,295a8.86,8.86,0,0,0,2.9-2.07,5.3,5.3,0,0,0,1.47-3.74,4.52,4.52,0,0,0-4.31-4.37,5.29,5.29,0,0,0-3.42,1c-.78.56-1.53,1.15-2.26,1.76a14.22,14.22,0,0,1-8,3.21,32,32,0,0,1-9.51-.62,54.91,54.91,0,0,1-11.48-3.62A44,44,0,0,1,94.19,270,53,53,0,0,1,87,252.2a59.45,59.45,0,0,1,1.11-29.37l.49-1.71.49.1-.07.37c-.42,1.72-.9,3.43-1.24,5.17a41.39,41.39,0,0,0-.77,9.75,18.73,18.73,0,0,0,1.29,6.35,9.6,9.6,0,0,0,2.2,3.38,5.69,5.69,0,0,0,3.26,1.61,4.3,4.3,0,0,0,5-4.24,5.39,5.39,0,0,0-.78-2.91c-.38-.61-.81-1.18-1.23-1.76s-.72-.95-1.08-1.44a14.93,14.93,0,0,1-2.78-7.83,33.3,33.3,0,0,1,.94-10.43,55.49,55.49,0,0,1,4.16-12,44.22,44.22,0,0,1,16.47-18A53.18,53.18,0,0,1,132,182.38,59.47,59.47,0,0,1,146,181.21a53.19,53.19,0,0,1,15.76,2.84l.5.19s.06,0,.12.11l-.12.34c-1.48-.4-2.9-.84-4.35-1.17a41.49,41.49,0,0,0-11.22-1,17.13,17.13,0,0,0-6.59,1.54,9,9,0,0,0-2.91,2.06,5.29,5.29,0,0,0-1.52,4.13,4.21,4.21,0,0,0,3.44,3.85,5,5,0,0,0,3.63-.57,20.23,20.23,0,0,0,2.15-1.51,19.11,19.11,0,0,1,3.87-2.47,17,17,0,0,1,6.46-1.3,36.27,36.27,0,0,1,10.1,1.29,55.32,55.32,0,0,1,11,3.89,44,44,0,0,1,18,16.58,53.28,53.28,0,0,1,6.83,17.49,59.91,59.91,0,0,1,1.17,14.2,58.55,58.55,0,0,1-2.62,15.75C199.62,257.68,199.54,257.9,199.45,258.17Zm-74.62-27.88.42-.19c.81-.39,1.64-.72,2.42-1.17a27.32,27.32,0,0,0,8.67-8.18,21.43,21.43,0,0,0,3.51-7.73,10.67,10.67,0,0,0,.17-4.5,5,5,0,0,0-3.94-4.1,8.29,8.29,0,0,0-4.14,0,12.18,12.18,0,0,0-5.43,3.24,22.52,22.52,0,0,0-4.29,5.86A27.44,27.44,0,0,0,119.07,224c0,.57-.08,1.14-.12,1.74a3.24,3.24,0,0,1-2.27-.86,4.67,4.67,0,0,1-1.18-1.78,8,8,0,0,1-.39-4.35c.18-1.08.46-2.14.68-3.21a3.29,3.29,0,0,0,.1-.82,1.43,1.43,0,0,0-1.72-1.44,3.29,3.29,0,0,0-2.11,1.14,6.11,6.11,0,0,0-1.22,2.11,12.45,12.45,0,0,0-.58,6.23,9.3,9.3,0,0,0,7.32,7.83c.52.11,1,.19,1.58.28.06.2.12.39.17.58a8.85,8.85,0,0,0,3.17,4.6,6.58,6.58,0,0,0,3.55,1.44,11.07,11.07,0,0,0,7.59-2.17c.09-.07.2-.13.39-.25-.16,1-.33,1.86-.44,2.75a1.08,1.08,0,0,1-.64.9c-3.23,1.72-6.47,3.44-9.67,5.23a50.36,50.36,0,0,0-8.35,5.86A21.36,21.36,0,0,0,109,258a12.67,12.67,0,0,0-.77,7.66,9.4,9.4,0,0,0,7,7.53,13.37,13.37,0,0,0,6.68,0,16.42,16.42,0,0,0,8.05-4.8,27.55,27.55,0,0,0,5.63-9.15A41.18,41.18,0,0,0,138,248.12c.22-2.12.36-4.24.51-6.37a.93.93,0,0,1,.52-.84,170.88,170.88,0,0,0,15.82-10,2.25,2.25,0,0,1,.34-.2l1.76,2.15-1.23.7a23.74,23.74,0,0,0-7.87,7.28A21.81,21.81,0,0,0,144.33,251a22.6,22.6,0,0,0,1,9.56,18.87,18.87,0,0,0,6.82,9.65,18,18,0,0,0,14.3,3.09,17,17,0,0,0,13.16-21.81,12.94,12.94,0,0,0-4.07-6.35,11.72,11.72,0,0,0-14-.34,9.68,9.68,0,0,0-3.75,10.57,7.86,7.86,0,0,0,2.3,3.91,5.3,5.3,0,0,0,4,1.47,2.27,2.27,0,0,0,2.19-2.49,2.86,2.86,0,0,0-.56-1.55c-.29-.4-.6-.79-.91-1.19a5.09,5.09,0,0,1-1-2.81,4.08,4.08,0,0,1,3.6-4.62,5,5,0,0,1,4.49,1.74,6.93,6.93,0,0,1,1.32,2.19,12.62,12.62,0,0,1-.25,9.94,10,10,0,0,1-4.65,4.88,11.15,11.15,0,0,1-12.77-2.06,15.09,15.09,0,0,1-4-7,19.94,19.94,0,0,1-.49-7.65,17.75,17.75,0,0,1,2.77-7.93,15.75,15.75,0,0,1,8.1-6.31,1.79,1.79,0,0,1,1.05-.07,15.46,15.46,0,0,0,4.75.22,9.2,9.2,0,0,0,2.69-.55,3.83,3.83,0,0,0,1.41-.87,2.15,2.15,0,0,0-.31-3.33,4.74,4.74,0,0,0-.95-.49,7.58,7.58,0,0,0-2.63-.5,13.47,13.47,0,0,0-5.12.6.52.52,0,0,1-.39,0,6.21,6.21,0,0,1-2.63-3.29l1.13-.88a53.05,53.05,0,0,0,6.94-6.29,19.17,19.17,0,0,0,3.82-5.95,10.34,10.34,0,0,0,.68-5.28,5.74,5.74,0,0,0-4.48-4.8,8.42,8.42,0,0,0-4.37.21A11.5,11.5,0,0,0,158,208.4a21.31,21.31,0,0,0-5,13,16.27,16.27,0,0,0,.34,4.87,169.77,169.77,0,0,1-14.29,9.21c0-.31,0-.5,0-.7.14-1.4.29-2.81.42-4.22a1.57,1.57,0,0,1,.42-.89c1-1.19,2-2.37,2.93-3.62a16.4,16.4,0,0,0,1.38-2.5,4.43,4.43,0,0,0,.42-2.27,2.12,2.12,0,0,0-2.57-2.07,4.75,4.75,0,0,0-2.26,1,9.51,9.51,0,0,0-2.2,2.57,17.25,17.25,0,0,0-2.07,5.07,2,2,0,0,1-.34.8,14.44,14.44,0,0,1-4.64,3.61A6.43,6.43,0,0,1,128,233,3.11,3.11,0,0,1,124.83,230.29Z" transform="translate(-78.58 -174.14)"/><path class="cls-2" d="M124.83,230.29A3.11,3.11,0,0,0,128,233a6.43,6.43,0,0,0,2.58-.69,14.44,14.44,0,0,0,4.64-3.61,2,2,0,0,0,.34-.8,17.25,17.25,0,0,1,2.07-5.07,9.51,9.51,0,0,1,2.2-2.57,4.75,4.75,0,0,1,2.26-1,2.12,2.12,0,0,1,2.57,2.07,4.43,4.43,0,0,1-.42,2.27,16.4,16.4,0,0,1-1.38,2.5c-.91,1.25-1.94,2.43-2.93,3.62a1.57,1.57,0,0,0-.42.89c-.13,1.41-.28,2.82-.42,4.22,0,.2,0,.39,0,.7a169.77,169.77,0,0,0,14.29-9.21,16.27,16.27,0,0,1-.34-4.87,21.31,21.31,0,0,1,5-13,11.5,11.5,0,0,1,5.46-3.81,8.42,8.42,0,0,1,4.37-.21,5.74,5.74,0,0,1,4.48,4.8,10.34,10.34,0,0,1-.68,5.28,19.17,19.17,0,0,1-3.82,5.95,53.05,53.05,0,0,1-6.94,6.29l-1.13.88a6.21,6.21,0,0,0,2.63,3.29.52.52,0,0,0,.39,0,13.47,13.47,0,0,1,5.12-.6,7.58,7.58,0,0,1,2.63.5,4.74,4.74,0,0,1,.95.49,2.15,2.15,0,0,1,.31,3.33,3.83,3.83,0,0,1-1.41.87,9.2,9.2,0,0,1-2.69.55,15.46,15.46,0,0,1-4.75-.22,1.79,1.79,0,0,0-1.05.07,15.75,15.75,0,0,0-8.1,6.31,17.75,17.75,0,0,0-2.77,7.93,19.94,19.94,0,0,0,.49,7.65,15.09,15.09,0,0,0,4,7,11.15,11.15,0,0,0,12.77,2.06,10,10,0,0,0,4.65-4.88,12.62,12.62,0,0,0,.25-9.94,6.93,6.93,0,0,0-1.32-2.19,5,5,0,0,0-4.49-1.74,4.08,4.08,0,0,0-3.6,4.62,5.09,5.09,0,0,0,1,2.81c.31.4.62.79.91,1.19a2.86,2.86,0,0,1,.56,1.55,2.27,2.27,0,0,1-2.19,2.49,5.3,5.3,0,0,1-4-1.47,7.86,7.86,0,0,1-2.3-3.91,9.68,9.68,0,0,1,3.75-10.57,11.72,11.72,0,0,1,14,.34,12.94,12.94,0,0,1,4.07,6.35,17,17,0,0,1-13.16,21.81,18,18,0,0,1-14.3-3.09,18.87,18.87,0,0,1-6.82-9.65,22.6,22.6,0,0,1-1-9.56,21.81,21.81,0,0,1,3.51-10.11,23.74,23.74,0,0,1,7.87-7.28l1.23-.7-1.76-2.15a2.25,2.25,0,0,0-.34.2,170.88,170.88,0,0,1-15.82,10,.93.93,0,0,0-.52.84c-.15,2.13-.29,4.25-.51,6.37a41.18,41.18,0,0,1-2.37,11.13A27.55,27.55,0,0,1,130,268.4a16.42,16.42,0,0,1-8.05,4.8,13.37,13.37,0,0,1-6.68,0,9.4,9.4,0,0,1-7-7.53A12.67,12.67,0,0,1,109,258a21.36,21.36,0,0,1,5.93-8.21,50.36,50.36,0,0,1,8.35-5.86c3.2-1.79,6.44-3.51,9.67-5.23a1.08,1.08,0,0,0,.64-.9c.11-.89.28-1.76.44-2.75-.19.12-.3.18-.39.25a11.07,11.07,0,0,1-7.59,2.17,6.58,6.58,0,0,1-3.55-1.44,8.85,8.85,0,0,1-3.17-4.6c0-.19-.11-.38-.17-.58-.53-.09-1.06-.17-1.58-.28a9.3,9.3,0,0,1-7.32-7.83,12.45,12.45,0,0,1,.58-6.23,6.11,6.11,0,0,1,1.22-2.11,3.29,3.29,0,0,1,2.11-1.14,1.43,1.43,0,0,1,1.72,1.44,3.29,3.29,0,0,1-.1.82c-.22,1.07-.5,2.13-.68,3.21a8,8,0,0,0,.39,4.35,4.67,4.67,0,0,0,1.18,1.78,3.24,3.24,0,0,0,2.27.86c0-.6.07-1.17.12-1.74a27.44,27.44,0,0,1,3.15-10.45,22.52,22.52,0,0,1,4.29-5.86,12.18,12.18,0,0,1,5.43-3.24,8.29,8.29,0,0,1,4.14,0,5,5,0,0,1,3.94,4.1,10.67,10.67,0,0,1-.17,4.5,21.43,21.43,0,0,1-3.51,7.73,27.32,27.32,0,0,1-8.67,8.18c-.78.45-1.61.78-2.42,1.17Zm8,14.19-.39.16a57.31,57.31,0,0,0-9.94,6.14,28.21,28.21,0,0,0-5.46,5.4,12.63,12.63,0,0,0-2.6,5.77,7,7,0,0,0,.27,3.59,3.5,3.5,0,0,0,2.62,2.3,6.6,6.6,0,0,0,1.66.11,7.8,7.8,0,0,0,4-1.48,12.54,12.54,0,0,0,2.52-2.36,24.47,24.47,0,0,0,3.52-5.87,50,50,0,0,0,3.36-11.3C132.52,246.16,132.64,245.37,132.78,244.48Zm-8.29-19.32c.27-.15.46-.25.65-.37a22.1,22.1,0,0,0,5.82-5.34,20.64,20.64,0,0,0,3.49-6.35,7.73,7.73,0,0,0,.46-2.57c0-.87-.43-1.26-1.31-1.25a3.32,3.32,0,0,0-1.82.67,10.13,10.13,0,0,0-2.37,2.34,26,26,0,0,0-4.65,10.12A8.78,8.78,0,0,0,124.49,225.16Zm34.18-2.84.17.07c.81-.76,1.64-1.5,2.43-2.28a28.42,28.42,0,0,0,4.22-4.94,18,18,0,0,0,1.25-2.43,3.74,3.74,0,0,0,.22-2.22,1.29,1.29,0,0,0-1.85-1.15,4.26,4.26,0,0,0-1.64.94,10.58,10.58,0,0,0-2.07,2.46,18,18,0,0,0-2.58,7.5C158.74,221,158.72,221.64,158.67,222.32Z" transform="translate(-78.58 -174.14)"/><path class="cls-1" d="M132.78,244.48c-.14.89-.26,1.68-.4,2.46a50,50,0,0,1-3.36,11.3,24.47,24.47,0,0,1-3.52,5.87,12.54,12.54,0,0,1-2.52,2.36,7.8,7.8,0,0,1-4,1.48,6.6,6.6,0,0,1-1.66-.11,3.5,3.5,0,0,1-2.62-2.3,7,7,0,0,1-.27-3.59,12.63,12.63,0,0,1,2.6-5.77,28.21,28.21,0,0,1,5.46-5.4,57.31,57.31,0,0,1,9.94-6.14Z" transform="translate(-78.58 -174.14)"/><path class="cls-1" d="M124.49,225.16a8.78,8.78,0,0,1,.27-2.75,26,26,0,0,1,4.65-10.12,10.13,10.13,0,0,1,2.37-2.34,3.32,3.32,0,0,1,1.82-.67c.88,0,1.29.38,1.31,1.25a7.73,7.73,0,0,1-.46,2.57,20.64,20.64,0,0,1-3.49,6.35,22.1,22.1,0,0,1-5.82,5.34C125,224.91,124.76,225,124.49,225.16Z" transform="translate(-78.58 -174.14)"/><path class="cls-1" d="M158.67,222.32c.05-.68.07-1.37.15-2a18,18,0,0,1,2.58-7.5,10.58,10.58,0,0,1,2.07-2.46,4.26,4.26,0,0,1,1.64-.94,1.29,1.29,0,0,1,1.85,1.15,3.74,3.74,0,0,1-.22,2.22,18,18,0,0,1-1.25,2.43,28.42,28.42,0,0,1-4.22,4.94c-.79.78-1.62,1.52-2.43,2.28Z" transform="translate(-78.58 -174.14)"/></svg>