<svg xmlns="http://www.w3.org/2000/svg" width="260" height="260" viewBox="0 0 260 260">
  <g id="Production_Line_Setting" data-name="Production Line Setting" transform="translate(-7625.846 -5711.461)">
    <rect id="Rectangle_522" data-name="Rectangle 522" width="260" height="260" transform="translate(7625.846 5711.461)" fill="none"/>
    <g id="Group_2088" data-name="Group 2088" transform="translate(-0.653 0.021)">
      <g id="Group_2089" data-name="Group 2089">
        <g id="Group_414" data-name="Group 414" transform="translate(7671.5 5717.657)">
          <path id="Union_3" data-name="Union 3" d="M4433.179-9157.431a.178.178,0,0,1-.178-.18v-39.867a.178.178,0,0,1,.178-.18h39.869a.179.179,0,0,1,.178.18v39.867a.18.18,0,0,1-.178.18Zm7.546-7.726H4465.5v-24.775H4459v5.212h-11v-5.212h-7.276Z" transform="translate(-4368 9236.657)" fill="#21bdca"/>
          <path id="Path_423" data-name="Path 423" d="M21.349,84h80.3a15.705,15.705,0,0,1,11.564,5.292,19.268,19.268,0,0,1,0,25.416A15.706,15.706,0,0,1,101.651,120h-80.3a15.7,15.7,0,0,1-11.563-5.292,19.267,19.267,0,0,1,0-25.416A15.7,15.7,0,0,1,21.349,84Z" fill="none" stroke="#5473e8" stroke-width="10"/>
          <path id="Path_424" data-name="Path 424" d="M31.75,109.053a6.546,6.546,0,1,0-6.546-6.546A6.546,6.546,0,0,0,31.75,109.053Z" fill="none" stroke="#5473e8" stroke-width="7"/>
          <path id="Path_425" data-name="Path 425" d="M61.655,109.053a6.546,6.546,0,1,0-6.546-6.546A6.546,6.546,0,0,0,61.655,109.053Z" fill="none" stroke="#5473e8" stroke-width="7"/>
          <path id="Path_426" data-name="Path 426" d="M91.562,109.053a6.546,6.546,0,1,0-6.546-6.546A6.546,6.546,0,0,0,91.562,109.053Z" fill="none" stroke="#5473e8" stroke-width="7"/>
          <path id="Path_427" data-name="Path 427" d="M72,.783a1,1,0,0,0-1.017.983l-.2,11.905a67.644,67.644,0,0,0-20.879,8.212l-8.438-8.455a1,1,0,0,0-1.414,0L18.678,34.762a1,1,0,0,0,0,1.414l8.314,8.332a67.641,67.641,0,0,0-7.615,17.345L6.554,61.625a1,1,0,0,0-1.018.982L5.334,74H29.2a56.045,56.045,0,1,1,78.606,57.41l3.845,11.42a67.9,67.9,0,0,0,9.52-5l8.2,8.223a1,1,0,0,0,1.415,0l21.379-21.334a1,1,0,0,0,0-1.414l-8.583-8.6a67.664,67.664,0,0,0,6.957-16.5l12.9.229a1,1,0,0,0,1.018-.982l.536-30.2a1,1,0,0,0-.982-1.018l-12.564-.223a67.668,67.668,0,0,0-8.534-21.327l8.865-8.828a1,1,0,0,0,0-1.414l-21.312-21.4a1,1,0,0,0-1.414,0l-8.989,8.951a67.63,67.63,0,0,0-17.092-7.353L103.186,2.3a1,1,0,0,0-.983-1.017Z" fill="#1b2f88" fill-rule="evenodd"/>
        </g>
      </g>
    </g>
  </g>
</svg>
