<svg xmlns="http://www.w3.org/2000/svg" width="260" height="260" viewBox="0 0 260 260">
  <g id="User" transform="translate(-211.673 -10532.514)">
    <rect id="Rectangle_520" data-name="Rectangle 520" width="260" height="260" transform="translate(211.673 10532.514)" fill="none"/>
    <g id="Group_2086" data-name="Group 2086">
      <g id="Group_150" data-name="Group 150" transform="translate(276.673 10559.167)">
        <path id="Path_380" data-name="Path 380" d="M87.21,19.311a.276.276,0,0,1,.487-.183A28.327,28.327,0,0,1,94,32.83V35a1,1,0,0,0,1,1h11a1,1,0,0,0,1-1V30a1,1,0,0,0-1-1h-2.573A37.4,37.4,0,0,0,82.048,2.772a.969.969,0,0,0-1.344.906V5.956a.008.008,0,0,1-.008.008.008.008,0,0,0-.008.008V18.594a1,1,0,0,0,1,1h5.239A.284.284,0,0,0,87.21,19.311ZM70.172,10.989a.97.97,0,0,0-.933-.979Q68.9,10,68.553,10q-.433,0-.863.016a.97.97,0,0,0-.926.979V22a1,1,0,0,1-1,1H60.949a1,1,0,0,1-1-1V1.752a.9.9,0,0,1,.9-.9.91.91,0,0,0,.2-.022,34.334,34.334,0,0,1,15.028,0,.754.754,0,0,0,.166.019.746.746,0,0,1,.746.746V22a1,1,0,0,1-1,1H71.172a1,1,0,0,1-1-1ZM56.6,13.172h0a0,0,0,0,0,0,0v5.418a1,1,0,0,1-1,1H49.954a.228.228,0,0,1-.228-.228.223.223,0,0,0-.394-.146A28.348,28.348,0,0,0,43.079,33a1.044,1.044,0,0,1-.079.264V35a1,1,0,0,1-1,1H31a1,1,0,0,1-1-1V30a1,1,0,0,1,1-1h2.68A37.384,37.384,0,0,1,55.262,2.685a.969.969,0,0,1,1.339.909v9.578ZM30.132,38.483a1,1,0,0,1,1-1H105.8a1,1,0,0,1,1,1v5.667a1,1,0,0,1-1,1H99.648V61.074a1,1,0,0,1-.012.156l-.049.31A36.144,36.144,0,0,1,88.914,81.212v8.313a.964.964,0,0,0,1.391.864.964.964,0,0,1,1.292.437L94.205,96.1a1,1,0,0,1-.453,1.34L79.7,104.39a1,1,0,0,0-.557.9v14.239a1,1,0,0,1-1,1H73.167a1,1,0,0,1-1-1V99.911a1,1,0,0,1,.606-.919l1.01-.432,6.907-3.415a1,1,0,0,0,.557-.9V86.376a31.035,31.035,0,0,1-6.432,2.176l-.429.1a1,1,0,0,1-.217.024H62.334a1,1,0,0,1-.217-.024l-.429-.1a31.36,31.36,0,0,1-5.147-1.611V94a1,1,0,0,0,.557.9l9.634,4.764a.006.006,0,0,1,0,.008.006.006,0,0,0,.005.008h.007a.01.01,0,0,1,.01.01v19.862a1,1,0,0,1-1,1H60.379a1,1,0,0,1-1-1.008l.1-14.027a1,1,0,0,0-.557-.9L44.906,97.675a1,1,0,0,1-.453-1.34l2.8-5.661a.583.583,0,0,1,.781-.264.583.583,0,0,0,.842-.523V82.334A35.912,35.912,0,0,1,36.917,61.54l-.049-.31a.993.993,0,0,1-.012-.156V45.151H31.132a1,1,0,0,1-1-1Zm16.724,6.667v15.1a.955.955,0,0,0,.016.177c1.012,5.39,5.663,15.495,16.36,18.214a.985.985,0,0,0,.242.03H73.03a.986.986,0,0,0,.242-.03c10.7-2.719,15.349-12.824,16.36-18.214a.946.946,0,0,0,.016-.177v-15.1Zm-.711,44.278-6.261,5.479v10.044a6,6,0,0,1-3.463,5.437L10,122.717v6.777H0V120.17a6,6,0,0,1,3.463-5.437l26.42-12.33V93.092a6,6,0,0,1,2.049-4.516L39.559,81.9Z" fill="#1b2f88" fill-rule="evenodd"/>
        <path id="Path_381" data-name="Path 381" d="M97.859,103.623A16.627,16.627,0,1,1,80.568,123H63.393l-.034,1.927a1,1,0,0,0,.982,1.017l4.555.081h.029a28.432,28.432,0,0,0,2.783,7.686.966.966,0,0,0-.105.091l-3.228,3.215a1,1,0,0,0,0,1.414l8.149,8.183a1,1,0,0,0,1.414,0l2.812-2.8a28.462,28.462,0,0,0,8.955,4.1,1.018,1.018,0,0,0-.013.145l-.076,4.555a1,1,0,0,0,.983,1.017l11.548.193a1,1,0,0,0,1.016-.983l.076-4.556a.907.907,0,0,0-.006-.128,28.476,28.476,0,0,0,9-3.716l3.044,3.05a1,1,0,0,0,1.414,0l8.175-8.157a1,1,0,0,0,0-1.414l-3.2-3.21a28.422,28.422,0,0,0,2.938-6.979,1.039,1.039,0,0,0,.281.045l4.555.081a1,1,0,0,0,1.017-.982l.206-11.547a1,1,0,0,0-.983-1.018l-4.555-.081a.924.924,0,0,0-.149.009,28.441,28.441,0,0,0-3.6-8.992,1.055,1.055,0,0,0,.1-.083l3.228-3.215a1,1,0,0,0,0-1.414l-8.149-8.183a1,1,0,0,0-1.414,0L111.9,95.572a1.039,1.039,0,0,0-.125.152,28.46,28.46,0,0,0-7.21-3.1c0-.018,0-.037,0-.055l.076-4.555a1,1,0,0,0-.983-1.017l-5.806-.1Z" fill="#21bdca" fill-rule="evenodd"/>
      </g>
    </g>
  </g>
</svg>
