<svg width="21" height="23" viewBox="0 0 21 23" fill="none" xmlns="http://www.w3.org/2000/svg">
<path d="M16.25 23H9.97294C8.93794 23 7.9221 22.5687 7.20335 21.8212L0.20752 14.5283L2.19127 12.7746C2.78544 12.2475 3.65752 12.1421 4.3571 12.5158L6.66669 13.7425V4.59042C6.66669 3.26792 7.74002 2.19458 9.06252 2.19458C9.22544 2.19458 9.38835 2.21375 9.55127 2.2425C9.63752 0.996666 10.6725 0.00958252 11.9375 0.00958252C12.7617 0.00958252 13.4804 0.421666 13.9117 1.05417C14.1896 0.939166 14.4963 0.881666 14.8125 0.881666C16.135 0.881666 17.2084 1.955 17.2084 3.2775V3.54583C17.3617 3.51708 17.5246 3.49792 17.6875 3.49792C19.01 3.49792 20.0834 4.57125 20.0834 5.89375V19.1667C20.0834 21.2846 18.3679 23 16.25 23ZM2.96752 14.6433L8.58335 20.4892C8.94752 20.8629 9.44585 21.0833 9.96335 21.0833H16.25C17.3042 21.0833 18.1667 20.2208 18.1667 19.1667V5.89375C18.1667 5.62542 17.9559 5.41458 17.6875 5.41458C17.4192 5.41458 17.2084 5.62542 17.2084 5.89375V11.5H15.2917V3.2775C15.2917 3.00917 15.0809 2.79833 14.8125 2.79833C14.5442 2.79833 14.3334 3.00917 14.3334 3.2775V11.5H12.4167V2.40542C12.4167 2.13708 12.2059 1.92625 11.9375 1.92625C11.6692 1.92625 11.4584 2.13708 11.4584 2.40542V11.5H9.54169V4.59042C9.54169 4.32208 9.33085 4.11125 9.06252 4.11125C8.79419 4.11125 8.58335 4.33167 8.58335 4.59042V16.9242L3.45627 14.2121L2.96752 14.6433Z" fill="#285D9A"/>
</svg>
