<svg xmlns="http://www.w3.org/2000/svg" width="260" height="260" viewBox="55 25 150 150">
  <g id="Opetation" transform="translate(-8527 -4690.104)">
    <rect id="Rectangle_515" data-name="Rectangle 515" width="260" height="260" transform="translate(8527 4690.104)" fill="none"/>
    <g id="Group_2082" data-name="Group 2082" transform="translate(0 -0.103)">
      <g id="Group_2100" data-name="Group 2100" transform="translate(3.797 7.103)">
        <path id="Path_562" data-name="Path 562" d="M60.662.894A.909.909,0,0,1,61.587,0L89.044.459a.909.909,0,0,1,.894.924L89.75,12.595a61.48,61.48,0,0,1,15.54,6.685l8.173-8.139a.909.909,0,0,1,1.286,0L134.125,30.6a.908.908,0,0,1,0,1.286l-8.06,8.026a61.5,61.5,0,0,1,7.759,19.391l11.423.2a.909.909,0,0,1,.893.925L145.65,87.89a.91.91,0,0,1-.926.893L133,88.575a61.5,61.5,0,0,1-6.325,15l7.8,7.821a.91.91,0,0,1,0,1.287l-19.438,19.4a.909.909,0,0,1-1.286,0l-7.461-7.476a61.534,61.534,0,0,1-19.426,8.027L86.677,144a.909.909,0,0,1-.924.894L58.3,144.439a.91.91,0,0,1-.894-.925l.191-11.414a61.552,61.552,0,0,1-19.329-8.862L31.3,130.172a.91.91,0,0,1-1.286,0L10.637,110.711a.909.909,0,0,1,0-1.286l8.081-8.047a61.456,61.456,0,0,1-6-16.587l-11.16-.2a.909.909,0,0,1-.893-.925L1.154,56.21a.909.909,0,0,1,.925-.893l11.658.207a61.5,61.5,0,0,1,6.923-15.77L13.1,32.179a.909.909,0,0,1,0-1.286L32.54,11.5a.909.909,0,0,1,1.286,0L41.5,19.185a61.5,61.5,0,0,1,18.984-7.467Zm11.8,122.3a50.954,50.954,0,1,0-50.1-51.8A50.954,50.954,0,0,0,72.462,123.2Z" transform="translate(8579.801 4710.104)" fill="#1b2f88" fill-rule="evenodd"/>
        <g id="Group_2099" data-name="Group 2099" transform="translate(8611.818 4741.926)">
          <path id="Path_563" data-name="Path 563" d="M117.183,93.054a6.015,6.015,0,0,0,2.2-1.593,6.152,6.152,0,0,0,1.293-2.416,43,43,0,0,0,1.6-11.652,41.973,41.973,0,0,0-8.627-25.732A39.651,39.651,0,0,0,92,37.245a5.711,5.711,0,0,0-2.675-.034,5.774,5.774,0,0,0-2.407,1.19,6.194,6.194,0,0,0-1.676,2.169,6.307,6.307,0,0,0-.587,2.7V57.157a2.078,2.078,0,0,0,.44,1.3,2.011,2.011,0,0,0,1.146.725A18.148,18.148,0,0,1,96.528,65.72,18.756,18.756,0,0,1,100.5,77.393a19.255,19.255,0,0,1-.918,5.886,2.128,2.128,0,0,0,.025,1.379,2.083,2.083,0,0,0,.864,1.063l11.541,6.947a5.69,5.69,0,0,0,5.178.386Zm-13.391-10.1a23.57,23.57,0,0,0,.663-5.562A23.009,23.009,0,0,0,100.1,63.785a22.312,22.312,0,0,0-11.482-8.252V43.265a2.1,2.1,0,0,1,.2-.9,2.063,2.063,0,0,1,.558-.722,1.934,1.934,0,0,1,.807-.4,1.913,1.913,0,0,1,.9.012,36.171,36.171,0,0,1,19.753,13.269,37.353,37.353,0,0,1,7.493,22.865,38.7,38.7,0,0,1-1.439,10.487,2.044,2.044,0,0,1-.432.806,2,2,0,0,1-.735.532,1.9,1.9,0,0,1-1.727-.129Z" transform="translate(-39.509 -35.188)" fill="#5473e8" stroke="#5473e8" stroke-width="3"/>
          <path id="Path_564" data-name="Path 564" d="M72.126,36.332a6.249,6.249,0,0,0-5.332-1.156A41.812,41.812,0,0,0,44.06,49.592a41.133,41.133,0,0,0-7.382,37.384,6.18,6.18,0,0,0,3.669,4.009,6.235,6.235,0,0,0,5.437-.387L57.9,83.651a2.059,2.059,0,0,0,.933-2.442,18.573,18.573,0,0,1,14.005-24.1A2.07,2.07,0,0,0,74.5,55.088V41.2a6.141,6.141,0,0,0-2.378-4.864ZM70.348,53.466a22.814,22.814,0,0,0-16.633,21.86,22.516,22.516,0,0,0,.7,5.562l-10.7,6.134a2.085,2.085,0,0,1-3.038-1.211,37.178,37.178,0,0,1,27.1-46.62,2.13,2.13,0,0,1,.494-.059,2.088,2.088,0,0,1,1.3.446,2.044,2.044,0,0,1,.79,1.62Z" transform="translate(-35 -35)" fill="#21bdca" stroke="#21bdca" stroke-width="3"/>
          <path id="Path_565" data-name="Path 565" d="M102.729,100.829l-11.271-6.6a1.916,1.916,0,0,0-2.415.4,17.242,17.242,0,0,1-26.069,0,1.916,1.916,0,0,0-2.415-.4l-11.272,6.6a5.939,5.939,0,0,0-1.316,9.153,38.322,38.322,0,0,0,56.072,0,5.937,5.937,0,0,0-1.315-9.153Zm-1.487,6.444a34.488,34.488,0,0,1-50.466,0,1.945,1.945,0,0,1-.5-1.616,1.963,1.963,0,0,1,.952-1.427L61.18,98.4a21.053,21.053,0,0,0,29.66,0l9.956,5.832a1.979,1.979,0,0,1,.446,3.043Z" transform="translate(-36.034 -40.354)" fill="#21bdca" stroke="#21bdca" stroke-width="3"/>
        </g>
      </g>
    </g>
  </g>
</svg>
