<svg xmlns="http://www.w3.org/2000/svg" width="260" height="260" viewBox="55 20 150 150">
  <g id="Dashboard" transform="translate(51.466 47.336)">
    <rect id="Rectangle_497" data-name="Rectangle 497" width="260" height="260" transform="translate(-51.466 -47.336)" fill="none"/>
    <g id="Group_2068" data-name="Group 2068" transform="translate(-8.752 1.717)">
      <g id="Group_71" data-name="Group 71" transform="translate(22.461 -17.57)">
        <g id="Group_69" data-name="Group 69" transform="translate(0 0)">
          <circle id="Ellipse_15" data-name="Ellipse 15" cx="64.825" cy="64.825" r="64.825" transform="translate(0 0)" fill="none" stroke="#1b2f88" stroke-width="15"/>
          <path id="Path_267" data-name="Path 267" d="M98.463,71.344A27.99,27.99,0,0,1,93.639,87.1l13.193,9.447a44.39,44.39,0,0,0,2.549-46.259L97.149,62.817a28.107,28.107,0,0,1,1.315,8.528ZM77.011,44.018a28.128,28.128,0,0,0-29.7,43.45L34.052,96.832a44.358,44.358,0,0,1,54.791-65.8Z" transform="translate(-5.991 -6.047)" fill="#5473e8" fill-rule="evenodd"/>
          <g id="Group_70" data-name="Group 70" transform="translate(51.375 27.307)">
            <circle id="Ellipse_16" data-name="Ellipse 16" cx="12.979" cy="12.979" r="12.979" transform="translate(0 25.011)" fill="#21bdca"/>
            <rect id="Rectangle_302" data-name="Rectangle 302" width="43.502" height="16.223" transform="translate(8.122 31.582) rotate(-46.551)" fill="#21bdca"/>
          </g>
        </g>
      </g>
    </g>
  </g>
</svg>
