<svg xmlns="http://www.w3.org/2000/svg" width="260" height="260" viewBox="30 25 200 100">
  <g id="Inventory_Report" data-name="Inventory Report" transform="translate(56.561 38.337)">
    <rect id="Rectangle_498" data-name="Rectangle 498" width="260" height="260" transform="translate(-56.561 -38.337)" fill="none"/>
    <g id="Group_2069" data-name="Group 2069" transform="translate(-0.833 0.001)">
      <g id="Group_62" data-name="Group 62" transform="translate(1.059 -29.337)">
        <g id="Group_68" data-name="Group 68" transform="translate(84.356 70.723)">
          <rect id="Rectangle_298" data-name="Rectangle 298" width="47.717" height="5.964" rx="2.982" fill="#21bdca"/>
          <rect id="Rectangle_299" data-name="Rectangle 299" width="47.717" height="5.964" rx="2.982" transform="translate(0 13.634)" fill="#21bdca"/>
          <rect id="Rectangle_300" data-name="Rectangle 300" width="47.717" height="5.964" rx="2.982" transform="translate(0 27.267)" fill="#21bdca"/>
          <rect id="Rectangle_301" data-name="Rectangle 301" width="32.379" height="5.964" rx="2.982" transform="translate(0 40.901)" fill="#21bdca"/>
        </g>
        <g id="Group_66" data-name="Group 66" transform="translate(0 0)">
          <path id="Path_261" data-name="Path 261" d="M69.456,42.213,29.2,19" transform="translate(-4.32 -2.81)" fill="none" stroke="#1b2f88" stroke-linecap="round" stroke-linejoin="round" stroke-width="12"/>
          <path id="Path_262" data-name="Path 262" d="M7,33.437,46.047,56.02,85.091,33.437" transform="translate(-1.036 -4.945)" fill="none" stroke="#1b2f88" stroke-linecap="round" stroke-linejoin="round" stroke-width="12"/>
          <path id="Path_263" data-name="Path 263" d="M52.824,101.31V59.891" transform="translate(-7.813 -8.858)" fill="none" stroke="#1b2f88" stroke-linecap="round" stroke-linejoin="round" stroke-width="12"/>
          <path id="Path_264" data-name="Path 264" d="M45.366,0a14.056,14.056,0,0,0-7.02,1.878L7.049,19.763l-.02.011A14.055,14.055,0,0,0,0,31.934V67.725a14.055,14.055,0,0,0,7.029,12.16l.02.011L38.337,97.776l.011.007a14.055,14.055,0,0,0,14.036,0l.011-.007,12.144-6.939V79.06L47.3,88.91l-.02.011a3.831,3.831,0,0,1-3.833,0l-.02-.011L12.142,71.03h-.008a3.833,3.833,0,0,1-1.908-3.309V31.942a3.833,3.833,0,0,1,1.908-3.309l31.3-17.884.02-.011a3.833,3.833,0,0,1,3.833,0l.02.011,31.289,17.88H78.6a3.833,3.833,0,0,1,1.908,3.311V44.827H90.733V31.934A14.06,14.06,0,0,0,83.7,19.774l-.02-.011L52.4,1.883l-.011-.007A14.055,14.055,0,0,0,45.366,0Z" transform="translate(0 0)" fill="#1b2f88" fill-rule="evenodd"/>
        </g>
        <g id="Group_67" data-name="Group 67" transform="translate(68.144 41.218)">
          <path id="Path_265" data-name="Path 265" d="M149.842,65.477H133.653V56.232h22.368a2.234,2.234,0,0,1,2.234,2.234V129.6l-8.414,6.694V65.477Zm0,70.809v8.784l-61.124.218v-80.8h15.857V56.232H82.207a2.234,2.234,0,0,0-2.234,2.234v93.618a2.234,2.234,0,0,0,2.234,2.234h73.81a2.234,2.234,0,0,0,2.234-2.234V129.592Z" transform="translate(-79.973 -49.535)" fill="#5473e8" fill-rule="evenodd"/>
          <path id="Path_266" data-name="Path 266" d="M116.868,52.842V50.608a2.234,2.234,0,0,1,2.234-2.234h8.947a2.232,2.232,0,0,1,2.237,2.23v2.234h4.473a2.234,2.234,0,0,1,2.234,2.234v7.8a2.234,2.234,0,0,1-2.234,2.234H112.395a2.234,2.234,0,0,1-2.234-2.234v-7.8a2.234,2.234,0,0,1,2.234-2.234ZM114.634,57.3v3.344h17.892V57.3Z" transform="translate(-84.438 -48.374)" fill="#5473e8" fill-rule="evenodd"/>
        </g>
      </g>
    </g>
  </g>
</svg>
