<svg xmlns="http://www.w3.org/2000/svg" width="260" height="260" viewBox="65 25 150 150">
  <g id="Work_Instruction" data-name="Work Instruction" transform="translate(-7621 -5201)">
    <rect id="Rectangle_518" data-name="Rectangle 518" width="260" height="260" transform="translate(7627 5201)" fill="none"/>
    <g id="Group_2085" data-name="Group 2085" transform="translate(0 5)">
      <g id="Group_406" data-name="Group 406" transform="translate(7704.131 5224)">
        <path id="Path_376" data-name="Path 376" d="M11,121.4a1.184,1.184,0,0,0,.583.165l10.732.178a1.188,1.188,0,0,0,1.208-1.167l.094-5.638a1.162,1.162,0,0,0-.042-.335,27.59,27.59,0,0,0,8.746-3.6l4.107,4.116a1.187,1.187,0,0,0,1.681,0l7.6-7.581a1.188,1.188,0,0,0,0-1.681l-4.12-4.127a1.182,1.182,0,0,0-.15-.128,27.511,27.511,0,0,0,2.867-6.827,1.168,1.168,0,0,0,.477.109l4.711.084A1.189,1.189,0,0,0,50.7,93.8l.191-10.732a1.19,1.19,0,0,0-1.168-1.209l-4.711-.084a1.519,1.519,0,0,0-.18.009,1.427,1.427,0,0,0-.176.039,27.519,27.519,0,0,0-3.512-8.782,1.157,1.157,0,0,0,.2-.142l.067-.06L44.971,69.3a1.189,1.189,0,0,0,0-1.681L37.4,60.012a1.189,1.189,0,0,0-1.681,0l-3.553,3.538a1.179,1.179,0,0,0-.234.33,27.523,27.523,0,0,0-7.05-3.039,1.2,1.2,0,0,0,.035-.267L25,55.388a1.19,1.19,0,0,0-1.169-1.209L13.1,54A1.189,1.189,0,0,0,11.9,55.168l-.086,5.183,0,.1c-.272.058-.543.118-.812.183V73.163a15.815,15.815,0,1,1,0,28.794Z" transform="translate(2.074 10.18)" fill="#21bdca" fill-rule="evenodd"/>
        <path id="Path_377" data-name="Path 377" d="M107.777,0H5.132A5.15,5.15,0,0,0,0,5.179V139.821A5.15,5.15,0,0,0,5.132,145H107.777a5.15,5.15,0,0,0,5.132-5.178V5.179A5.15,5.15,0,0,0,107.777,0Zm-41.7,14.029h15.4V37.3l-7.458-5.486-7.939,5.729ZM100.985,131.97H13.113V14.029H55.266V52.568a2.554,2.554,0,0,0,4.058,2.1l14.629-9.694L88.2,54.591a2.521,2.521,0,0,0,1.508.5A2.585,2.585,0,0,0,92.27,52.5V14.029h8.7V134.347Z" fill="#1b2f88"/>
      </g>
    </g>
  </g>
</svg>
