<svg xmlns="http://www.w3.org/2000/svg" width="260" height="260" viewBox="0 0 220 120">
  <g id="Purchase_Order_Receipt" data-name="Purchase Order Receipt" transform="translate(-1113.258 -4040.827)">
    <rect id="Rectangle_528" data-name="Rectangle 528" width="260" height="260" transform="translate(1113.258 4040.827)" fill="none"/>
    <g id="Group_2094" data-name="Group 2094" transform="translate(-6.944 3.415)">
      <g id="Group_78" data-name="Group 78" transform="translate(1169.241 4044.827)">
        <path id="Path_273" data-name="Path 273" d="M153.733,63.945H131.141V7.995a7.891,7.891,0,0,0-2.4-5.652A8.3,8.3,0,0,0,122.945,0H8.2A8.3,8.3,0,0,0,2.4,2.341,7.894,7.894,0,0,0,0,7.995V119.9c0,13.22,11.035,23.979,24.589,23.979H139.333c13.557,0,22.589-10.759,22.589-23.979V71.939a7.891,7.891,0,0,0-2.4-5.652A8.3,8.3,0,0,0,153.733,63.945ZM22.589,129.892a8.3,8.3,0,0,1-5.795-2.337,7.894,7.894,0,0,1-2.4-5.652V13.99H116.745V121.9a23.476,23.476,0,0,0,1.4,8ZM147.533,119.9a7.891,7.891,0,0,1-2.4,5.652,8.344,8.344,0,0,1-11.59,0,7.891,7.891,0,0,1-2.4-5.652V79.932h16.393Z" transform="translate(0 0)" fill="#1b2f88"/>
        <path id="Path_274" data-name="Path 274" d="M27,27H89.5V43.038H27Zm0,32.078H89.5V75.116H27ZM66.065,91.156H89.5v16.038H66.065Z" transform="translate(4.841 4.841)" fill="#5473e8"/>
      </g>
      <path id="Path_275" data-name="Path 275" d="M-5293,2795.288l8.8,9.926,11.512-15.087" transform="translate(6493.947 1354.225)" fill="none" stroke="#21bdca" stroke-linecap="round" stroke-width="9"/>
    </g>
  </g>
</svg>
