<?xml version="1.0" encoding="UTF-8" standalone="no" ?>
<!DOCTYPE svg PUBLIC "-//W3C//DTD SVG 1.1//EN" "http://www.w3.org/Graphics/SVG/1.1/DTD/svg11.dtd">
<svg xmlns="http://www.w3.org/2000/svg" xmlns:xlink="http://www.w3.org/1999/xlink" version="1.1" width="40" height="40" viewBox="0 0 1080 1080" xml:space="preserve">
<desc>Created with Fabric.js 5.2.4</desc>
<defs>
</defs>
<rect x="0" y="0" width="30" height="30" fill="transparent"></rect>
<g transform="matrix(1 0 0 1 540 540)" id="5e002d43-aee0-447c-a200-240f1206a5b6"  >
<rect  style="width: 30; height: 30; stroke: none; stroke-width: 1; stroke-dasharray: none; stroke-linecap: butt; stroke-dashoffset: 0; stroke-linejoin: miter; stroke-miterlimit: 4; fill: rgb(39,55,67); fill-rule: nonzero; opacity: 1; visibility: hidden;" vector-effect="non-scaling-stroke"  x="-540" y="-540" rx="0" ry="0" width="1080" height="1080" />
</g>
<g transform="matrix(1 0 0 1 540 540)" id="37b39d47-db7a-49bd-bdc0-44b96031c50a"  >
</g>
<g transform="matrix(0 0 0 0 0 0)"  >
<g style=""   >
</g>
</g>
<g transform="matrix(6.19 0 0 6.07 513.24 497.37)" id="82117466-8954-4a76-b694-6b04732c336f"  >
<circle style="width: 30; height: 30; stroke: rgb(0,0,0); stroke-width: 0; stroke-dasharray: none; stroke-linecap: butt; stroke-dashoffset: 0; stroke-linejoin: miter; stroke-miterlimit: 4; fill: rgb(76,175,80); fill-rule: nonzero; opacity: 1;" vector-effect="non-scaling-stroke"  cx="0" cy="0" r="35" />
</g>
<g transform="matrix(0 0 0 0 0 0)"  >
<g style=""   >
</g>
</g>
<g transform="matrix(0 0 0 0 0 0)"  >
<g style=""   >
</g>
</g>
<g transform="matrix(0 0 0 0 0 0)"  >
<g style=""   >
</g>
</g>
<g transform="matrix(0 0 0 0 0 0)"  >
<g style=""   >
</g>
</g>
<g transform="matrix(0 0 0 0 0 0)"  >
<g style=""   >
</g>
</g>
<g transform="matrix(0 0 0 0 0 0)"  >
<g style=""   >
</g>
</g>
<g transform="matrix(0 0 0 0 0 0)"  >
<g style=""   >
</g>
</g>
<g transform="matrix(0.98 0 0 0.97 511.98 498.83)"  >
<g style="" vector-effect="non-scaling-stroke"   >
		<g transform="matrix(1 0 0 1 0 0)"  >
<path style="stroke: none; stroke-width: 1; stroke-dasharray: none; stroke-linecap: butt; stroke-dashoffset: 0; stroke-linejoin: miter; stroke-miterlimit: 4; fill: rgb(0,0,0); fill-rule: nonzero; opacity: 1;" vector-effect="non-scaling-stroke"  transform=" translate(-244.5, -244.5)" d="M 417.4 71.6 C 371.2 25.4 309.8 0 244.5 0 C 179.2 0 117.8 25.4 71.6 71.6 C 25.39999999999999 117.79999999999998 0 179.2 0 244.5 C 0 309.8 25.4 371.2 71.6 417.4 C 117.79999999999998 463.59999999999997 179.2 489 244.5 489 C 309.8 489 371.2 463.6 417.4 417.4 C 463.59999999999997 371.19999999999993 489 309.8 489 244.5 C 489 179.2 463.6 117.8 417.4 71.6 z M 244.5 462 C 124.6 462 27 364.4 27 244.5 C 27 124.60000000000002 124.6 27 244.5 27 C 364.4 27 462 124.6 462 244.5 C 462 364.4 364.4 462 244.5 462 z" stroke-linecap="round" />
</g>
		<g transform="matrix(1 0 0 1 0 0.07)"  >
<path style="stroke: none; stroke-width: 1; stroke-dasharray: none; stroke-linecap: butt; stroke-dashoffset: 0; stroke-linejoin: miter; stroke-miterlimit: 4; fill: rgb(0,0,0); fill-rule: nonzero; opacity: 1;" vector-effect="non-scaling-stroke"  transform=" translate(-244.5, -244.57)" d="M 301.6 188.1 L 217.50000000000003 272.3 L 187.40000000000003 242.20000000000002 C 182.10000000000002 236.9 173.60000000000002 236.9 168.30000000000004 242.20000000000002 C 163.00000000000003 247.50000000000003 163.00000000000003 256 168.30000000000004 261.3 L 208 301 C 210.6 303.6 214.1 305 217.5 305 C 220.9 305 224.4 303.7 227 301 L 320.7 207.3 C 326 202 326 193.5 320.7 188.20000000000002 C 315.5 182.8 306.9 182.8 301.6 188.1 z" stroke-linecap="round" />
</g>
</g>
</g>
<g transform="matrix(0 0 0 0 0 0)"  >
<g style=""   >
</g>
</g>
<g transform="matrix(5.36 0 0 5.29 512.28 498.72)"  >
<path style="stroke: rgb(76,175,80); stroke-width: 21; stroke-dasharray: none; stroke-linecap: butt; stroke-dashoffset: 0; stroke-linejoin: miter; stroke-miterlimit: 4; fill: rgb(76,175,80); fill-rule: nonzero; opacity: 1;" vector-effect="non-scaling-stroke"  transform=" translate(-50, -50)" d="M 50 92.875 C 26.358 92.875 7.125 73.642 7.125 50 C 7.125 26.358000000000004 26.358 7.125 50 7.125 C 73.642 7.125 92.875 26.358 92.875 50 C 92.875 73.642 73.642 92.875 50 92.875 z M 50 9.125 C 27.461 9.125 9.125 27.461 9.125 50 C 9.125 72.538 27.461 90.875 50 90.875 C 72.538 90.875 90.875 72.538 90.875 50 C 90.875 27.461 72.538 9.125 50 9.125 z" stroke-linecap="round" />
</g>
<g transform="matrix(0 0 0 0 0 0)"  >
<g style=""   >
</g>
</g>
<g transform="matrix(0 0 0 0 0 0)"  >
<g style=""   >
</g>
</g>
</svg>