<?xml version="1.0" encoding="UTF-8" standalone="no" ?>
<!DOCTYPE svg PUBLIC "-//W3C//DTD SVG 1.1//EN" "http://www.w3.org/Graphics/SVG/1.1/DTD/svg11.dtd">
<svg xmlns="http://www.w3.org/2000/svg" xmlns:xlink="http://www.w3.org/1999/xlink" version="1.1" width="25" height="25" viewBox="0 0 1080 1080" xml:space="preserve">
<desc>Created with Fabric.js 5.2.4</desc>
<defs>
</defs>
<g transform="matrix(1 0 0 1 540 540)" id="5e002d43-aee0-447c-a200-240f1206a5b6"  >
<rect style="stroke: none; stroke-width: 1; stroke-dasharray: none; stroke-linecap: butt; stroke-dashoffset: 0; stroke-linejoin: miter; stroke-miterlimit: 4; fill: rgb(39,55,67); fill-rule: nonzero; opacity: 1;" vector-effect="non-scaling-stroke"  x="-540" y="-540" rx="0" ry="0" width="1080" height="1080" />
</g>
<g transform="matrix(1 0 0 1 540 540)" id="37b39d47-db7a-49bd-bdc0-44b96031c50a"  >
</g>
<g transform="matrix(1 0 0 1 540 515.15)"  >
<g style="opacity: 1;" vector-effect="non-scaling-stroke"   >
		<g transform="matrix(21.33 0 0 21.33 0.13 -0.13)"  >
<path style="stroke: none; stroke-width: 1; stroke-dasharray: none; stroke-linecap: butt; stroke-dashoffset: 0; stroke-linejoin: miter; stroke-miterlimit: 4; fill: rgb(255,183,77); fill-rule: nonzero; opacity: 1;" vector-effect="non-scaling-stroke"  transform=" translate(-12.01, -11.99)" d="M 16 8 C 15.609500148514186 7.609618061667137 14.976499851485814 7.609618061667137 14.586 8 L 12 10.586 L 9.414 8 C 9.021621113035687 7.621027790491912 8.397915222978893 7.6264476261029195 8.012181424540906 8.012181424540906 C 7.6264476261029195 8.397915222978893 7.621027790491912 9.021621113035687 8 9.414 L 10.586 12 L 8 14.586 C 7.621027790491912 14.978378886964313 7.6264476261029195 15.602084777021107 8.012181424540906 15.987818575459094 C 8.397915222978893 16.37355237389708 9.021621113035687 16.37897220950809 9.414 16 L 12 13.414 L 14.586 16 C 14.978378886964313 16.37897220950809 15.602084777021107 16.37355237389708 15.987818575459094 15.987818575459094 C 16.37355237389708 15.602084777021107 16.37897220950809 14.978378886964313 16 14.586 L 13.414 12 L 16 9.414 C 16.39038193833286 9.023500148514186 16.39038193833286 8.390499851485814 16 8 Z" stroke-linecap="round" />
</g>
		<g transform="matrix(21.33 0 0 21.33 0 0)"  >
<path style="stroke: none; stroke-width: 1; stroke-dasharray: none; stroke-linecap: butt; stroke-dashoffset: 0; stroke-linejoin: miter; stroke-miterlimit: 4; fill: rgb(255,183,77); fill-rule: nonzero; opacity: 1;" vector-effect="non-scaling-stroke"  transform=" translate(-12, -12)" d="M 12 0 C 5.372583002030479 0 0 5.372583002030479 0 12 C 0 18.627416997969522 5.372583002030479 24 12 24 C 18.627416997969522 24 24 18.627416997969522 24 12 C 23.992835152386185 5.375553048810704 18.6244469511893 0.007164847613811531 12.000000000000002 0 Z M 12 22 C 6.477152501692066 22 2 17.522847498307932 2 12 C 2 6.477152501692066 6.477152501692066 2 12 2 C 17.522847498307932 2 22 6.477152501692064 22 11.999999999999998 C 21.99393762954522 17.5203344322718 17.520334432271795 21.993937629545222 11.999999999999998 22 Z" stroke-linecap="round" />
</g>
</g>
</g>
<g transform="matrix(NaN NaN NaN NaN 0 0)"  >
<g style=""   >
</g>
</g>
<g transform="matrix(NaN NaN NaN NaN 0 0)"  >
<g style=""   >
</g>
</g>
</svg>