<svg width="122" height="106" viewBox="0 0 122 106" fill="none" xmlns="http://www.w3.org/2000/svg">
<path d="M35.7092 83.9166C30.1644 83.9166 25.6277 87.8916 25.6277 92.75H96.1983C96.1983 87.8916 91.6617 83.9166 86.1168 83.9166H65.9538V75.0833H81.0761C86.6209 75.0833 91.1576 71.1083 91.1576 66.25H50.8315C42.4638 66.25 35.7092 60.3316 35.7092 53C35.7092 48.1858 38.6833 43.99 43.1191 41.6491C45.1858 44.255 48.4623 46.0658 52.3437 46.3308C55.8723 46.5958 59.1992 45.4916 61.6691 43.5925L64.6432 50.7033L69.3815 49.2016L71.0954 53.3533L80.572 50.35L78.8581 46.1983L83.5964 44.6966L69.7848 11.4833L65.0464 12.985L63.3326 8.83331L53.8559 11.8366L55.5698 15.9883L50.8315 17.5341L53.6543 24.38C47.7566 24.2033 42.615 27.6925 41.1532 32.595C32.0295 35.9516 25.6277 43.8133 25.6277 53C25.6277 65.19 36.919 75.0833 50.8315 75.0833V83.9166H35.7092ZM65.2481 19.9633L73.8678 40.7216L69.1295 42.2233L60.5098 21.465L65.2481 19.9633ZM53.3519 30.9166C56.1243 30.9166 58.3926 32.9041 58.3926 35.3333C58.3926 37.7625 56.1243 39.75 53.3519 39.75C50.5795 39.75 48.3111 37.7625 48.3111 35.3333C48.3111 32.9041 50.5795 30.9166 53.3519 30.9166Z" fill="#285D9A"/>
</svg>
