<svg width="94" height="97" viewBox="0 0 94 97" fill="none" xmlns="http://www.w3.org/2000/svg">
<path d="M90.0419 0.911252C86.6774 0.319111 83.2704 0.0143144 79.8564 2.08636e-05C68.2082 -0.00973642 56.8029 3.4031 47 9.83172C37.1719 3.48751 25.7684 0.158435 14.1436 0.239818C10.7296 0.254112 7.32262 0.558909 3.95811 1.15105C2.85604 1.34518 1.85802 1.93499 1.14379 2.81425C0.429545 3.69351 0.0460202 4.80445 0.0622781 5.947V63.4984C0.0522255 64.2031 0.194296 64.9014 0.478381 65.5436C0.762466 66.1858 1.18158 66.7562 1.70591 67.2141C2.23024 67.672 2.84689 68.0062 3.51199 68.1929C4.17709 68.3796 4.8743 68.4143 5.55399 68.2944C12.2803 67.1044 19.1716 67.3019 25.822 68.8751C32.4725 70.4483 38.7475 73.3654 44.2776 77.4547L44.8409 77.7904H45.3572C45.8777 78.012 46.4361 78.1261 47 78.1261C47.5639 78.1261 48.1223 78.012 48.6428 77.7904H49.1591L49.7224 77.4547C55.2139 73.274 61.471 70.2623 68.1227 68.5982C74.7744 66.9341 81.6854 66.6514 88.446 67.7668C89.1257 67.8867 89.8229 67.8521 90.488 67.6653C91.1531 67.4786 91.7698 67.1444 92.2941 66.6865C92.8184 66.2286 93.2375 65.6583 93.5216 65.0161C93.8057 64.3739 93.9478 63.6756 93.9377 62.9709V5.41945C93.8889 4.32671 93.4759 3.28386 92.7673 2.46388C92.0587 1.64391 91.0971 1.09607 90.0419 0.911252ZM42.3062 64.6495C33.6222 59.9815 23.956 57.5453 14.1436 57.5514C12.5947 57.5514 11.0457 57.5514 9.44982 57.5514V9.59193C11.0131 9.49987 12.5803 9.49987 14.1436 9.59193C24.1572 9.58062 33.9523 12.5831 42.3062 18.2246V64.6495ZM84.5502 57.7433C82.9543 57.7433 81.4053 57.7433 79.8564 57.7433C70.044 57.7371 60.3778 60.1733 51.6938 64.8413V18.2246C60.0477 12.5831 69.8428 9.58062 79.8564 9.59193C81.4197 9.49987 82.9869 9.49987 84.5502 9.59193V57.7433ZM90.0419 77.6465C86.6774 77.0544 83.2704 76.7496 79.8564 76.7353C68.2082 76.7255 56.8029 80.1383 47 86.567C37.1971 80.1383 25.7918 76.7255 14.1436 76.7353C10.7296 76.7496 7.32262 77.0544 3.95811 77.6465C3.34711 77.7456 2.7613 77.9671 2.23438 78.2983C1.70746 78.6295 1.24981 79.0639 0.887756 79.5764C0.525704 80.089 0.266389 80.6696 0.124723 81.2849C-0.016943 81.9002 -0.0381646 82.5381 0.0622781 83.1618C0.300809 84.4073 1.01272 85.5053 2.04207 86.2155C3.07141 86.9257 4.33426 87.19 5.55399 86.9506C12.2803 85.7607 19.1716 85.9581 25.822 87.5313C32.4725 89.1045 38.7475 92.0217 44.2776 96.1109C45.0726 96.6892 46.0242 97 47 97C47.9759 97 48.9274 96.6892 49.7224 96.1109C55.2525 92.0217 61.5276 89.1045 68.178 87.5313C74.8284 85.9581 81.7197 85.7607 88.446 86.9506C89.6657 87.19 90.9286 86.9257 91.9579 86.2155C92.9873 85.5053 93.6992 84.4073 93.9377 83.1618C94.0382 82.5381 94.0169 81.9002 93.8753 81.2849C93.7336 80.6696 93.4743 80.089 93.1122 79.5764C92.7502 79.0639 92.2925 78.6295 91.7656 78.2983C91.2387 77.9671 90.6529 77.7456 90.0419 77.6465Z" fill="#285D9A"/>
</svg>
