<svg width="110" height="110" viewBox="0 0 110 110" fill="none" xmlns="http://www.w3.org/2000/svg">
<g clip-path="url(#clip0_16_12725)">
<path d="M91.6667 27.5H55L45.8333 18.3333H18.3333C13.2917 18.3333 9.21249 22.4583 9.21249 27.5L9.16666 82.5C9.16666 87.5417 13.2917 91.6667 18.3333 91.6667H91.6667C96.7083 91.6667 100.833 87.5417 100.833 82.5V36.6667C100.833 31.625 96.7083 27.5 91.6667 27.5ZM91.6667 82.5H18.3333V27.5H42.0292L51.1958 36.6667H91.6667V82.5ZM80.2083 55.55V71.0417H66.4583V48.125H72.7833L80.2083 55.55ZM59.5833 41.25V77.9167H87.0833V52.7083L75.625 41.25H59.5833Z" fill="#285D9A"/>
</g>
<defs>
<clipPath id="clip0_16_12725">
<rect width="110" height="110" fill="white"/>
</clipPath>
</defs>
</svg>
