<svg xmlns="http://www.w3.org/2000/svg" xmlns:xlink="http://www.w3.org/1999/xlink" width="500" zoomAndPan="magnify" viewBox="0 0 375 374.999991" height="500" preserveAspectRatio="xMidYMid meet" version="1.0"><defs><g/><clipPath id="25608d9819"><path d="M 166.203125 109.042969 L 217 109.042969 L 217 201.289062 L 166.203125 201.289062 Z M 166.203125 109.042969 " clip-rule="nonzero"/></clipPath><clipPath id="f592dca071"><path d="M 100.601562 123 L 156 123 L 156 188 L 100.601562 188 Z M 100.601562 123 " clip-rule="nonzero"/></clipPath><clipPath id="4655169441"><path d="M 219 123 L 274.601562 123 L 274.601562 188 L 219 188 Z M 219 123 " clip-rule="nonzero"/></clipPath></defs><g clip-path="url(#25608d9819)"><path fill="#8ec03b" d="M 216.699219 119.1875 C 216.367188 118.460938 215.765625 117.851562 214.960938 117.523438 C 213.347656 116.871094 211.53125 117.605469 210.898438 119.164062 L 203.71875 136.921875 C 203.089844 138.484375 201.605469 139.355469 200.402344 138.867188 C 199.207031 138.382812 198.742188 136.726562 199.375 135.164062 L 206.558594 117.40625 C 206.871094 116.628906 206.828125 115.789062 206.507812 115.066406 C 206.1875 114.34375 205.585938 113.730469 204.78125 113.402344 C 203.164062 112.75 201.34375 113.484375 200.710938 115.039062 L 193.53125 132.800781 C 192.898438 134.359375 191.417969 135.230469 190.21875 134.746094 C 189.019531 134.261719 188.558594 132.601562 189.1875 131.042969 L 196.371094 113.285156 C 196.6875 112.507812 196.640625 111.664062 196.320312 110.941406 C 196 110.21875 195.398438 109.605469 194.59375 109.28125 C 192.976562 108.625 191.164062 109.363281 190.53125 110.921875 L 180.886719 134.769531 C 178.574219 140.488281 180.203125 146.828125 184.394531 150.734375 L 166.617188 194.683594 C 165.636719 197.109375 166.878906 199.902344 169.386719 200.917969 C 171.894531 201.933594 174.726562 200.789062 175.707031 198.363281 L 193.472656 154.441406 C 199.226562 154.585938 204.773438 151.128906 207.101562 145.382812 L 216.746094 121.527344 C 217.058594 120.75 217.015625 119.910156 216.699219 119.1875 " fill-opacity="1" fill-rule="nonzero"/></g><g clip-path="url(#f592dca071)"><path fill="#211d1d" d="M 103.164062 151.046875 L 148.699219 123.691406 C 149.386719 123.3125 150.148438 123.121094 150.988281 123.121094 C 152.246094 123.121094 153.324219 123.566406 154.21875 124.464844 C 155.117188 125.359375 155.5625 126.4375 155.5625 127.699219 C 155.5625 129.335938 154.78125 130.671875 153.21875 131.703125 L 114.089844 155.164062 L 153.21875 178.625 C 154.78125 179.65625 155.5625 180.992188 155.5625 182.632812 C 155.5625 183.890625 155.117188 184.96875 154.21875 185.867188 C 153.324219 186.761719 152.246094 187.210938 150.988281 187.210938 C 150.148438 187.210938 149.386719 187.019531 148.699219 186.640625 L 103.164062 159.285156 C 101.484375 158.21875 100.644531 156.84375 100.644531 155.164062 C 100.644531 153.488281 101.484375 152.113281 103.164062 151.046875 " fill-opacity="1" fill-rule="nonzero"/></g><g clip-path="url(#4655169441)"><path fill="#211d1d" d="M 274.554688 155.164062 C 274.554688 156.84375 273.714844 158.21875 272.039062 159.285156 L 226.5 186.640625 C 225.816406 187.019531 225.050781 187.210938 224.210938 187.210938 C 222.953125 187.210938 221.878906 186.761719 220.980469 185.867188 C 220.085938 184.96875 219.636719 183.890625 219.636719 182.632812 C 219.636719 180.992188 220.417969 179.65625 221.980469 178.625 L 261.109375 155.164062 L 221.980469 131.703125 C 220.417969 130.671875 219.636719 129.335938 219.636719 127.699219 C 219.636719 126.4375 220.085938 125.359375 220.980469 124.464844 C 221.878906 123.566406 222.953125 123.121094 224.210938 123.121094 C 225.050781 123.121094 225.816406 123.3125 226.5 123.691406 L 272.039062 151.046875 C 273.714844 152.113281 274.554688 153.488281 274.554688 155.164062 " fill-opacity="1" fill-rule="nonzero"/></g><g fill="#8ec03b" fill-opacity="1"><g transform="translate(106.869125, 244.277034)"><g><path d="M 16.242188 -19.359375 C 16.242188 -20.828125 15.308594 -21.605469 13.59375 -21.605469 L 4.988281 -21.605469 C 3.273438 -21.605469 2.339844 -20.671875 2.371094 -18.957031 C 2.371094 -16.242188 2.402344 -13.53125 2.402344 -10.820312 C 2.402344 -8.105469 2.371094 -5.394531 2.371094 -2.648438 C 2.339844 -0.933594 3.273438 0 4.988281 0 L 5.550781 0 C 7.265625 0 8.199219 -0.933594 8.167969 -2.648438 C 8.167969 -4.550781 8.167969 -6.421875 8.167969 -8.292969 C 9.601562 -8.261719 11.035156 -8.261719 12.410156 -8.230469 C 14.125 -8.230469 15.058594 -8.980469 15.058594 -10.351562 C 15.058594 -11.691406 14.125 -12.441406 12.410156 -12.441406 C 11.035156 -12.410156 9.601562 -12.410156 8.167969 -12.378906 L 8.167969 -17.148438 C 10.007812 -17.117188 11.910156 -17.117188 13.59375 -17.085938 C 15.308594 -17.085938 16.242188 -17.894531 16.242188 -19.359375 Z M 16.242188 -19.359375 "/></g></g></g><g fill="#8ec03b" fill-opacity="1"><g transform="translate(124.387739, 244.277034)"><g><path d="M 10.726562 0.3125 C 16.835938 0.3125 19.859375 -3.398438 19.859375 -10.820312 C 19.859375 -18.207031 16.835938 -21.917969 10.726562 -21.917969 C 4.613281 -21.917969 1.558594 -18.207031 1.558594 -10.820312 C 1.558594 -3.398438 4.613281 0.3125 10.726562 0.3125 Z M 10.726562 -3.898438 C 8.261719 -3.898438 7.515625 -5.519531 7.515625 -10.820312 C 7.515625 -16.085938 8.261719 -17.707031 10.726562 -17.707031 C 13.1875 -17.707031 13.90625 -16.085938 13.90625 -10.820312 C 13.90625 -5.519531 13.1875 -3.898438 10.726562 -3.898438 Z M 10.726562 -3.898438 "/></g></g></g><g fill="#8ec03b" fill-opacity="1"><g transform="translate(145.834023, 244.277034)"><g><path d="M 10.726562 0.3125 C 16.835938 0.3125 19.859375 -3.398438 19.859375 -10.820312 C 19.859375 -18.207031 16.835938 -21.917969 10.726562 -21.917969 C 4.613281 -21.917969 1.558594 -18.207031 1.558594 -10.820312 C 1.558594 -3.398438 4.613281 0.3125 10.726562 0.3125 Z M 10.726562 -3.898438 C 8.261719 -3.898438 7.515625 -5.519531 7.515625 -10.820312 C 7.515625 -16.085938 8.261719 -17.707031 10.726562 -17.707031 C 13.1875 -17.707031 13.90625 -16.085938 13.90625 -10.820312 C 13.90625 -5.519531 13.1875 -3.898438 10.726562 -3.898438 Z M 10.726562 -3.898438 "/></g></g></g><g fill="#8ec03b" fill-opacity="1"><g transform="translate(167.280307, 244.277034)"><g><path d="M 9.445312 0.03125 C 16.523438 0 19.453125 -3.523438 19.453125 -11.097656 C 19.453125 -18.707031 16.523438 -21.605469 9.445312 -21.605469 L 5.050781 -21.605469 C 3.335938 -21.605469 2.402344 -20.640625 2.402344 -18.832031 C 2.402344 -9.382812 2.371094 -5.425781 2.339844 -2.585938 C 2.339844 -0.902344 3.273438 0 4.988281 0 Z M 8.199219 -4.300781 C 8.167969 -5.363281 8.167969 -6.515625 8.167969 -7.636719 C 8.167969 -12.96875 8.167969 -15.152344 8.199219 -17.304688 L 9.320312 -17.304688 C 12.6875 -17.304688 13.6875 -15.589844 13.6875 -10.820312 C 13.6875 -6.640625 12.566406 -4.300781 9.320312 -4.300781 Z M 8.199219 -4.300781 "/></g></g></g><g fill="#211d1d" fill-opacity="1"><g transform="translate(188.279275, 244.277034)"><g><path d="M 10.507812 0.3125 C 14.964844 0.3125 17.769531 -1.433594 18.394531 -5.238281 C 18.707031 -7.046875 17.554688 -8.042969 15.839844 -8.042969 L 15.808594 -8.042969 C 14.1875 -8.042969 13.53125 -7.171875 13 -5.519531 C 12.625 -4.394531 11.878906 -3.992188 10.539062 -3.992188 C 8.761719 -3.992188 7.515625 -5.300781 7.515625 -10.820312 C 7.515625 -15.902344 8.386719 -17.707031 10.539062 -17.707031 C 12.128906 -17.707031 12.875 -17.085938 13.125 -15.464844 C 13.375 -13.6875 14.03125 -12.71875 15.746094 -12.71875 L 15.933594 -12.71875 C 17.617188 -12.71875 18.769531 -13.625 18.613281 -15.371094 C 18.238281 -19.609375 15.339844 -21.917969 10.726562 -21.917969 C 4.582031 -21.917969 1.527344 -18.207031 1.527344 -10.820312 C 1.527344 -3.398438 4.300781 0.3125 10.507812 0.3125 Z M 10.507812 0.3125 "/></g></g></g><g fill="#211d1d" fill-opacity="1"><g transform="translate(208.073444, 244.277034)"><g><path d="M 10.726562 0.3125 C 16.835938 0.3125 19.859375 -3.398438 19.859375 -10.820312 C 19.859375 -18.207031 16.835938 -21.917969 10.726562 -21.917969 C 4.613281 -21.917969 1.558594 -18.207031 1.558594 -10.820312 C 1.558594 -3.398438 4.613281 0.3125 10.726562 0.3125 Z M 10.726562 -3.898438 C 8.261719 -3.898438 7.515625 -5.519531 7.515625 -10.820312 C 7.515625 -16.085938 8.261719 -17.707031 10.726562 -17.707031 C 13.1875 -17.707031 13.90625 -16.085938 13.90625 -10.820312 C 13.90625 -5.519531 13.1875 -3.898438 10.726562 -3.898438 Z M 10.726562 -3.898438 "/></g></g></g><g fill="#211d1d" fill-opacity="1"><g transform="translate(229.519728, 244.277034)"><g><path d="M 9.445312 0.03125 C 16.523438 0 19.453125 -3.523438 19.453125 -11.097656 C 19.453125 -18.707031 16.523438 -21.605469 9.445312 -21.605469 L 5.050781 -21.605469 C 3.335938 -21.605469 2.402344 -20.640625 2.402344 -18.832031 C 2.402344 -9.382812 2.371094 -5.425781 2.339844 -2.585938 C 2.339844 -0.902344 3.273438 0 4.988281 0 Z M 8.199219 -4.300781 C 8.167969 -5.363281 8.167969 -6.515625 8.167969 -7.636719 C 8.167969 -12.96875 8.167969 -15.152344 8.199219 -17.304688 L 9.320312 -17.304688 C 12.6875 -17.304688 13.6875 -15.589844 13.6875 -10.820312 C 13.6875 -6.640625 12.566406 -4.300781 9.320312 -4.300781 Z M 8.199219 -4.300781 "/></g></g></g><g fill="#211d1d" fill-opacity="1"><g transform="translate(250.529603, 244.277034)"><g><path d="M 8.167969 -4.148438 L 8.167969 -8.605469 C 9.476562 -8.574219 10.789062 -8.574219 12.035156 -8.542969 C 13.75 -8.542969 14.683594 -9.289062 14.683594 -10.664062 C 14.683594 -12.003906 13.75 -12.75 12.035156 -12.75 C 10.789062 -12.71875 9.476562 -12.71875 8.167969 -12.6875 L 8.167969 -17.460938 C 9.882812 -17.429688 11.628906 -17.429688 13.28125 -17.398438 C 14.996094 -17.398438 15.933594 -18.144531 15.933594 -19.515625 C 15.933594 -20.859375 14.996094 -21.605469 13.28125 -21.605469 L 4.988281 -21.605469 C 3.273438 -21.605469 2.339844 -20.671875 2.371094 -18.957031 C 2.371094 -16.242188 2.402344 -13.53125 2.402344 -10.820312 C 2.402344 -8.105469 2.371094 -5.394531 2.371094 -2.648438 C 2.339844 -0.933594 3.273438 0 4.988281 0 L 13.59375 0 C 15.308594 0 16.242188 -0.75 16.242188 -2.121094 C 16.242188 -3.460938 15.308594 -4.207031 13.59375 -4.207031 C 11.847656 -4.179688 10.007812 -4.179688 8.167969 -4.148438 Z M 8.167969 -4.148438 "/></g></g></g><g fill="#737373" fill-opacity="1"><g transform="translate(146.368209, 261.808634)"><g><path d="M 2.15625 -7.703125 C 2.757812 -7.703125 3.195312 -7.550781 3.46875 -7.25 C 3.738281 -6.945312 3.875 -6.507812 3.875 -5.9375 L 3.875 -5.3125 C 3.875 -4.882812 3.796875 -4.539062 3.640625 -4.28125 C 3.484375 -4.019531 3.242188 -3.835938 2.921875 -3.734375 C 3.265625 -3.628906 3.507812 -3.4375 3.65625 -3.15625 C 3.8125 -2.882812 3.890625 -2.539062 3.890625 -2.125 L 3.890625 -0.921875 C 3.890625 -0.753906 3.894531 -0.59375 3.90625 -0.4375 C 3.914062 -0.28125 3.957031 -0.132812 4.03125 0 L 3.171875 0 C 3.117188 -0.113281 3.082031 -0.234375 3.0625 -0.359375 C 3.039062 -0.484375 3.03125 -0.675781 3.03125 -0.9375 L 3.03125 -2.140625 C 3.03125 -2.578125 2.929688 -2.875 2.734375 -3.03125 C 2.535156 -3.195312 2.257812 -3.28125 1.90625 -3.28125 L 1.296875 -3.28125 L 1.296875 0 L 0.4375 0 L 0.4375 -7.703125 Z M 1.9375 -4.0625 C 2.28125 -4.0625 2.546875 -4.132812 2.734375 -4.28125 C 2.929688 -4.425781 3.03125 -4.707031 3.03125 -5.125 L 3.03125 -5.859375 C 3.03125 -6.210938 2.960938 -6.476562 2.828125 -6.65625 C 2.691406 -6.832031 2.460938 -6.921875 2.140625 -6.921875 L 1.296875 -6.921875 L 1.296875 -4.0625 Z M 1.9375 -4.0625 "/></g></g></g><g fill="#737373" fill-opacity="1"><g transform="translate(155.099185, 261.808634)"><g><path d="M 3.171875 -4.296875 L 3.171875 -3.515625 L 1.296875 -3.515625 L 1.296875 -0.78125 L 3.609375 -0.78125 L 3.609375 0 L 0.4375 0 L 0.4375 -7.703125 L 3.609375 -7.703125 L 3.609375 -6.921875 L 1.296875 -6.921875 L 1.296875 -4.296875 Z M 3.171875 -4.296875 "/></g></g></g><g fill="#737373" fill-opacity="1"><g transform="translate(163.456431, 261.808634)"><g><path d="M 2.0625 -7.78125 C 2.644531 -7.78125 3.070312 -7.601562 3.34375 -7.25 C 3.625 -6.90625 3.765625 -6.441406 3.765625 -5.859375 L 3.765625 -5.640625 L 2.953125 -5.640625 L 2.953125 -5.890625 C 2.953125 -6.242188 2.882812 -6.515625 2.75 -6.703125 C 2.613281 -6.898438 2.390625 -7 2.078125 -7 C 1.765625 -7 1.539062 -6.898438 1.40625 -6.703125 C 1.269531 -6.515625 1.203125 -6.25 1.203125 -5.90625 C 1.203125 -5.625 1.265625 -5.375 1.390625 -5.15625 C 1.515625 -4.945312 1.671875 -4.75 1.859375 -4.5625 C 2.054688 -4.382812 2.265625 -4.207031 2.484375 -4.03125 C 2.710938 -3.863281 2.921875 -3.675781 3.109375 -3.46875 C 3.304688 -3.269531 3.46875 -3.039062 3.59375 -2.78125 C 3.71875 -2.519531 3.78125 -2.207031 3.78125 -1.84375 C 3.78125 -1.257812 3.640625 -0.789062 3.359375 -0.4375 C 3.078125 -0.09375 2.640625 0.078125 2.046875 0.078125 C 1.453125 0.078125 1.015625 -0.09375 0.734375 -0.4375 C 0.453125 -0.789062 0.3125 -1.257812 0.3125 -1.84375 L 0.3125 -2.28125 L 1.125 -2.28125 L 1.125 -1.796875 C 1.125 -1.453125 1.195312 -1.179688 1.34375 -0.984375 C 1.488281 -0.796875 1.71875 -0.703125 2.03125 -0.703125 C 2.332031 -0.703125 2.554688 -0.796875 2.703125 -0.984375 C 2.847656 -1.179688 2.921875 -1.453125 2.921875 -1.796875 C 2.921875 -2.085938 2.859375 -2.335938 2.734375 -2.546875 C 2.609375 -2.753906 2.445312 -2.945312 2.25 -3.125 C 2.0625 -3.3125 1.859375 -3.488281 1.640625 -3.65625 C 1.421875 -3.832031 1.210938 -4.019531 1.015625 -4.21875 C 0.828125 -4.425781 0.671875 -4.660156 0.546875 -4.921875 C 0.421875 -5.179688 0.359375 -5.492188 0.359375 -5.859375 C 0.359375 -6.453125 0.492188 -6.921875 0.765625 -7.265625 C 1.046875 -7.609375 1.476562 -7.78125 2.0625 -7.78125 Z M 2.0625 -7.78125 "/></g></g></g><g fill="#737373" fill-opacity="1"><g transform="translate(171.94558, 261.808634)"><g><path d="M 1.546875 0 L 1.546875 -6.921875 L 0.125 -6.921875 L 0.125 -7.703125 L 3.8125 -7.703125 L 3.8125 -6.921875 L 2.390625 -6.921875 L 2.390625 0 Z M 1.546875 0 "/></g></g></g><g fill="#737373" fill-opacity="1"><g transform="translate(180.302828, 261.808634)"><g><path d="M 1.3125 -1.546875 L 1.015625 0 L 0.21875 0 L 1.6875 -7.703125 L 2.9375 -7.703125 L 4.40625 0 L 3.546875 0 L 3.25 -1.546875 Z M 1.421875 -2.28125 L 3.140625 -2.28125 L 2.265625 -6.734375 Z M 1.421875 -2.28125 "/></g></g></g><g fill="#737373" fill-opacity="1"><g transform="translate(189.341594, 261.808634)"><g><path d="M 1.25 -1.8125 C 1.25 -1.457031 1.320312 -1.179688 1.46875 -0.984375 C 1.613281 -0.796875 1.84375 -0.703125 2.15625 -0.703125 C 2.46875 -0.703125 2.691406 -0.796875 2.828125 -0.984375 C 2.972656 -1.179688 3.046875 -1.457031 3.046875 -1.8125 L 3.046875 -7.703125 L 3.84375 -7.703125 L 3.84375 -1.859375 C 3.84375 -1.273438 3.703125 -0.800781 3.421875 -0.4375 C 3.148438 -0.0820312 2.71875 0.09375 2.125 0.09375 C 1.539062 0.09375 1.109375 -0.0820312 0.828125 -0.4375 C 0.546875 -0.800781 0.40625 -1.273438 0.40625 -1.859375 L 0.40625 -7.703125 L 1.25 -7.703125 Z M 1.25 -1.8125 "/></g></g></g><g fill="#737373" fill-opacity="1"><g transform="translate(197.995633, 261.808634)"><g><path d="M 2.15625 -7.703125 C 2.757812 -7.703125 3.195312 -7.550781 3.46875 -7.25 C 3.738281 -6.945312 3.875 -6.507812 3.875 -5.9375 L 3.875 -5.3125 C 3.875 -4.882812 3.796875 -4.539062 3.640625 -4.28125 C 3.484375 -4.019531 3.242188 -3.835938 2.921875 -3.734375 C 3.265625 -3.628906 3.507812 -3.4375 3.65625 -3.15625 C 3.8125 -2.882812 3.890625 -2.539062 3.890625 -2.125 L 3.890625 -0.921875 C 3.890625 -0.753906 3.894531 -0.59375 3.90625 -0.4375 C 3.914062 -0.28125 3.957031 -0.132812 4.03125 0 L 3.171875 0 C 3.117188 -0.113281 3.082031 -0.234375 3.0625 -0.359375 C 3.039062 -0.484375 3.03125 -0.675781 3.03125 -0.9375 L 3.03125 -2.140625 C 3.03125 -2.578125 2.929688 -2.875 2.734375 -3.03125 C 2.535156 -3.195312 2.257812 -3.28125 1.90625 -3.28125 L 1.296875 -3.28125 L 1.296875 0 L 0.4375 0 L 0.4375 -7.703125 Z M 1.9375 -4.0625 C 2.28125 -4.0625 2.546875 -4.132812 2.734375 -4.28125 C 2.929688 -4.425781 3.03125 -4.707031 3.03125 -5.125 L 3.03125 -5.859375 C 3.03125 -6.210938 2.960938 -6.476562 2.828125 -6.65625 C 2.691406 -6.832031 2.460938 -6.921875 2.140625 -6.921875 L 1.296875 -6.921875 L 1.296875 -4.0625 Z M 1.9375 -4.0625 "/></g></g></g><g fill="#737373" fill-opacity="1"><g transform="translate(206.726611, 261.808634)"><g><path d="M 1.3125 -1.546875 L 1.015625 0 L 0.21875 0 L 1.6875 -7.703125 L 2.9375 -7.703125 L 4.40625 0 L 3.546875 0 L 3.25 -1.546875 Z M 1.421875 -2.28125 L 3.140625 -2.28125 L 2.265625 -6.734375 Z M 1.421875 -2.28125 "/></g></g></g><g fill="#737373" fill-opacity="1"><g transform="translate(215.765377, 261.808634)"><g><path d="M 1.203125 0 L 0.421875 0 L 0.421875 -7.703125 L 1.515625 -7.703125 L 3.296875 -2.140625 L 3.296875 -7.703125 L 4.0625 -7.703125 L 4.0625 0 L 3.171875 0 L 1.203125 -6.21875 Z M 1.203125 0 "/></g></g></g><g fill="#737373" fill-opacity="1"><g transform="translate(224.661241, 261.808634)"><g><path d="M 1.546875 0 L 1.546875 -6.921875 L 0.125 -6.921875 L 0.125 -7.703125 L 3.8125 -7.703125 L 3.8125 -6.921875 L 2.390625 -6.921875 L 2.390625 0 Z M 1.546875 0 "/></g></g></g></svg>