<svg xmlns="http://www.w3.org/2000/svg" xmlns:xlink="http://www.w3.org/1999/xlink" width="140" zoomAndPan="magnify" viewBox="0 0 104.88 37.5" height="50" preserveAspectRatio="xMidYMid meet" version="1.0"><defs><g/></defs><g fill="#211d1d" fill-opacity="1"><g transform="translate(2.342344, 18.983709)"><g><path d="M 8.589844 -2.351562 C 8.589844 -3.046875 8.210938 -3.488281 7.4375 -3.695312 L 3.347656 -4.769531 L 7.4375 -5.839844 C 8.210938 -6.046875 8.589844 -6.488281 8.589844 -7.183594 C 8.589844 -7.816406 8.003906 -8.035156 7.074219 -7.765625 L 1.59375 -6.140625 C 0.835938 -5.921875 0.472656 -5.460938 0.472656 -4.769531 C 0.472656 -4.074219 0.835938 -3.613281 1.59375 -3.394531 L 7.074219 -1.769531 C 8.003906 -1.5 8.589844 -1.722656 8.589844 -2.351562 Z M 8.589844 -2.351562 "/></g></g></g><g fill="#8ec03b" fill-opacity="1"><g transform="translate(11.813715, 18.983709)"><g><path d="M 8.226562 -9.804688 C 8.226562 -10.546875 7.75 -10.941406 6.882812 -10.941406 L 2.527344 -10.941406 C 1.65625 -10.941406 1.183594 -10.464844 1.199219 -9.597656 C 1.199219 -8.226562 1.214844 -6.851562 1.214844 -5.476562 C 1.214844 -4.105469 1.199219 -2.730469 1.199219 -1.34375 C 1.183594 -0.472656 1.65625 0 2.527344 0 L 2.808594 0 C 3.679688 0 4.152344 -0.472656 4.136719 -1.34375 C 4.136719 -2.304688 4.136719 -3.253906 4.136719 -4.199219 C 4.863281 -4.183594 5.589844 -4.183594 6.285156 -4.167969 C 7.152344 -4.167969 7.625 -4.546875 7.625 -5.242188 C 7.625 -5.921875 7.152344 -6.300781 6.285156 -6.300781 C 5.589844 -6.285156 4.863281 -6.285156 4.136719 -6.265625 L 4.136719 -8.683594 C 5.066406 -8.667969 6.03125 -8.667969 6.882812 -8.652344 C 7.75 -8.652344 8.226562 -9.0625 8.226562 -9.804688 Z M 8.226562 -9.804688 "/></g></g></g><g fill="#8ec03b" fill-opacity="1"><g transform="translate(20.685265, 18.983709)"><g><path d="M 5.429688 0.15625 C 8.523438 0.15625 10.054688 -1.722656 10.054688 -5.476562 C 10.054688 -9.21875 8.523438 -11.097656 5.429688 -11.097656 C 2.335938 -11.097656 0.789062 -9.21875 0.789062 -5.476562 C 0.789062 -1.722656 2.335938 0.15625 5.429688 0.15625 Z M 5.429688 -1.972656 C 4.183594 -1.972656 3.804688 -2.792969 3.804688 -5.476562 C 3.804688 -8.144531 4.183594 -8.96875 5.429688 -8.96875 C 6.679688 -8.96875 7.039062 -8.144531 7.039062 -5.476562 C 7.039062 -2.792969 6.679688 -1.972656 5.429688 -1.972656 Z M 5.429688 -1.972656 "/></g></g></g><g fill="#8ec03b" fill-opacity="1"><g transform="translate(31.545816, 18.983709)"><g><path d="M 5.429688 0.15625 C 8.523438 0.15625 10.054688 -1.722656 10.054688 -5.476562 C 10.054688 -9.21875 8.523438 -11.097656 5.429688 -11.097656 C 2.335938 -11.097656 0.789062 -9.21875 0.789062 -5.476562 C 0.789062 -1.722656 2.335938 0.15625 5.429688 0.15625 Z M 5.429688 -1.972656 C 4.183594 -1.972656 3.804688 -2.792969 3.804688 -5.476562 C 3.804688 -8.144531 4.183594 -8.96875 5.429688 -8.96875 C 6.679688 -8.96875 7.039062 -8.144531 7.039062 -5.476562 C 7.039062 -2.792969 6.679688 -1.972656 5.429688 -1.972656 Z M 5.429688 -1.972656 "/></g></g></g><g fill="#8ec03b" fill-opacity="1"><g transform="translate(42.406368, 18.983709)"><g><path d="M 4.785156 0.015625 C 8.367188 0 9.851562 -1.785156 9.851562 -5.621094 C 9.851562 -9.472656 8.367188 -10.941406 4.785156 -10.941406 L 2.558594 -10.941406 C 1.6875 -10.941406 1.214844 -10.449219 1.214844 -9.535156 C 1.214844 -4.75 1.199219 -2.746094 1.183594 -1.308594 C 1.183594 -0.457031 1.65625 0 2.527344 0 Z M 4.152344 -2.179688 C 4.136719 -2.714844 4.136719 -3.300781 4.136719 -3.867188 C 4.136719 -6.566406 4.136719 -7.671875 4.152344 -8.761719 L 4.71875 -8.761719 C 6.425781 -8.761719 6.929688 -7.894531 6.929688 -5.476562 C 6.929688 -3.363281 6.363281 -2.179688 4.71875 -2.179688 Z M 4.152344 -2.179688 "/></g></g></g><g fill="#211d1d" fill-opacity="1"><g transform="translate(53.041355, 18.983709)"><g><path d="M 5.320312 0.15625 C 7.578125 0.15625 9 -0.726562 9.3125 -2.652344 C 9.472656 -3.566406 8.886719 -4.074219 8.019531 -4.074219 L 8.003906 -4.074219 C 7.183594 -4.074219 6.851562 -3.632812 6.582031 -2.792969 C 6.394531 -2.226562 6.015625 -2.019531 5.335938 -2.019531 C 4.4375 -2.019531 3.804688 -2.683594 3.804688 -5.476562 C 3.804688 -8.050781 4.246094 -8.96875 5.335938 -8.96875 C 6.140625 -8.96875 6.519531 -8.652344 6.644531 -7.832031 C 6.773438 -6.929688 7.105469 -6.441406 7.972656 -6.441406 L 8.066406 -6.441406 C 8.917969 -6.441406 9.503906 -6.898438 9.425781 -7.78125 C 9.234375 -9.929688 7.765625 -11.097656 5.429688 -11.097656 C 2.320312 -11.097656 0.773438 -9.21875 0.773438 -5.476562 C 0.773438 -1.722656 2.179688 0.15625 5.320312 0.15625 Z M 5.320312 0.15625 "/></g></g></g><g fill="#211d1d" fill-opacity="1"><g transform="translate(63.065261, 18.983709)"><g><path d="M 5.429688 0.15625 C 8.523438 0.15625 10.054688 -1.722656 10.054688 -5.476562 C 10.054688 -9.21875 8.523438 -11.097656 5.429688 -11.097656 C 2.335938 -11.097656 0.789062 -9.21875 0.789062 -5.476562 C 0.789062 -1.722656 2.335938 0.15625 5.429688 0.15625 Z M 5.429688 -1.972656 C 4.183594 -1.972656 3.804688 -2.792969 3.804688 -5.476562 C 3.804688 -8.144531 4.183594 -8.96875 5.429688 -8.96875 C 6.679688 -8.96875 7.039062 -8.144531 7.039062 -5.476562 C 7.039062 -2.792969 6.679688 -1.972656 5.429688 -1.972656 Z M 5.429688 -1.972656 "/></g></g></g><g fill="#211d1d" fill-opacity="1"><g transform="translate(73.925813, 18.983709)"><g><path d="M 4.785156 0.015625 C 8.367188 0 9.851562 -1.785156 9.851562 -5.621094 C 9.851562 -9.472656 8.367188 -10.941406 4.785156 -10.941406 L 2.558594 -10.941406 C 1.6875 -10.941406 1.214844 -10.449219 1.214844 -9.535156 C 1.214844 -4.75 1.199219 -2.746094 1.183594 -1.308594 C 1.183594 -0.457031 1.65625 0 2.527344 0 Z M 4.152344 -2.179688 C 4.136719 -2.714844 4.136719 -3.300781 4.136719 -3.867188 C 4.136719 -6.566406 4.136719 -7.671875 4.152344 -8.761719 L 4.71875 -8.761719 C 6.425781 -8.761719 6.929688 -7.894531 6.929688 -5.476562 C 6.929688 -3.363281 6.363281 -2.179688 4.71875 -2.179688 Z M 4.152344 -2.179688 "/></g></g></g><g fill="#211d1d" fill-opacity="1"><g transform="translate(84.565362, 18.983709)"><g><path d="M 4.136719 -2.101562 L 4.136719 -4.355469 C 4.800781 -4.339844 5.460938 -4.339844 6.09375 -4.324219 C 6.960938 -4.324219 7.4375 -4.703125 7.4375 -5.398438 C 7.4375 -6.078125 6.960938 -6.457031 6.09375 -6.457031 C 5.460938 -6.441406 4.800781 -6.441406 4.136719 -6.425781 L 4.136719 -8.839844 C 5.003906 -8.824219 5.886719 -8.824219 6.726562 -8.808594 C 7.59375 -8.808594 8.066406 -9.1875 8.066406 -9.882812 C 8.066406 -10.5625 7.59375 -10.941406 6.726562 -10.941406 L 2.527344 -10.941406 C 1.65625 -10.941406 1.183594 -10.464844 1.199219 -9.597656 C 1.199219 -8.226562 1.214844 -6.851562 1.214844 -5.476562 C 1.214844 -4.105469 1.199219 -2.730469 1.199219 -1.34375 C 1.183594 -0.472656 1.65625 0 2.527344 0 L 6.882812 0 C 7.75 0 8.226562 -0.378906 8.226562 -1.074219 C 8.226562 -1.753906 7.75 -2.132812 6.882812 -2.132812 C 6 -2.117188 5.066406 -2.117188 4.136719 -2.101562 Z M 4.136719 -2.101562 "/></g></g></g><g fill="#211d1d" fill-opacity="1"><g transform="translate(93.484277, 18.983709)"><g><path d="M 1.988281 -1.769531 L 7.46875 -3.394531 C 8.226562 -3.613281 8.589844 -4.074219 8.589844 -4.769531 C 8.589844 -5.460938 8.226562 -5.921875 7.46875 -6.140625 L 1.988281 -7.765625 C 1.058594 -8.035156 0.472656 -7.816406 0.472656 -7.183594 C 0.472656 -6.488281 0.851562 -6.046875 1.625 -5.839844 L 5.714844 -4.769531 L 1.625 -3.695312 C 0.851562 -3.488281 0.472656 -3.046875 0.472656 -2.351562 C 0.472656 -1.722656 1.058594 -1.5 1.988281 -1.769531 Z M 1.988281 -1.769531 "/></g></g></g><g fill="#737373" fill-opacity="1"><g transform="translate(22.840993, 29.773211)"><g><path d="M 2.125 0 C 2.113281 -0.0390625 2.101562 -0.078125 2.09375 -0.109375 C 2.082031 -0.140625 2.070312 -0.175781 2.0625 -0.21875 C 2.0625 -0.269531 2.054688 -0.332031 2.046875 -0.40625 C 2.046875 -0.476562 2.046875 -0.566406 2.046875 -0.671875 L 2.046875 -1.546875 C 2.046875 -1.804688 2 -1.988281 1.90625 -2.09375 C 1.820312 -2.195312 1.679688 -2.25 1.484375 -2.25 L 1.1875 -2.25 L 1.1875 0 L 0.3125 0 L 0.3125 -5.53125 L 1.625 -5.53125 C 2.070312 -5.53125 2.394531 -5.421875 2.59375 -5.203125 C 2.800781 -4.992188 2.90625 -4.675781 2.90625 -4.25 L 2.90625 -3.8125 C 2.90625 -3.25 2.71875 -2.878906 2.34375 -2.703125 C 2.5625 -2.609375 2.710938 -2.457031 2.796875 -2.25 C 2.878906 -2.050781 2.921875 -1.804688 2.921875 -1.515625 L 2.921875 -0.671875 C 2.921875 -0.535156 2.925781 -0.414062 2.9375 -0.3125 C 2.945312 -0.207031 2.972656 -0.101562 3.015625 0 Z M 1.1875 -4.734375 L 1.1875 -3.03125 L 1.515625 -3.03125 C 1.679688 -3.03125 1.8125 -3.070312 1.90625 -3.15625 C 2 -3.25 2.046875 -3.40625 2.046875 -3.625 L 2.046875 -4.171875 C 2.046875 -4.367188 2.007812 -4.507812 1.9375 -4.59375 C 1.863281 -4.6875 1.753906 -4.734375 1.609375 -4.734375 Z M 1.1875 -4.734375 "/></g></g></g><g fill="#737373" fill-opacity="1"><g transform="translate(29.17262, 29.773211)"><g><path d="M 1.1875 -3.203125 L 2.375 -3.203125 L 2.375 -2.40625 L 1.1875 -2.40625 L 1.1875 -0.796875 L 2.6875 -0.796875 L 2.6875 0 L 0.3125 0 L 0.3125 -5.53125 L 2.6875 -5.53125 L 2.6875 -4.734375 L 1.1875 -4.734375 Z M 1.1875 -3.203125 "/></g></g></g><g fill="#737373" fill-opacity="1"><g transform="translate(35.235823, 29.773211)"><g><path d="M 0.203125 -4.203125 C 0.203125 -4.648438 0.304688 -4.992188 0.515625 -5.234375 C 0.734375 -5.472656 1.054688 -5.59375 1.484375 -5.59375 C 1.910156 -5.59375 2.226562 -5.472656 2.4375 -5.234375 C 2.65625 -4.992188 2.765625 -4.648438 2.765625 -4.203125 L 2.765625 -4.03125 L 1.9375 -4.03125 L 1.9375 -4.25 C 1.9375 -4.445312 1.898438 -4.585938 1.828125 -4.671875 C 1.753906 -4.753906 1.644531 -4.796875 1.5 -4.796875 C 1.363281 -4.796875 1.257812 -4.753906 1.1875 -4.671875 C 1.113281 -4.585938 1.078125 -4.445312 1.078125 -4.25 C 1.078125 -4.0625 1.117188 -3.894531 1.203125 -3.75 C 1.285156 -3.601562 1.390625 -3.460938 1.515625 -3.328125 C 1.640625 -3.203125 1.773438 -3.078125 1.921875 -2.953125 C 2.066406 -2.828125 2.203125 -2.6875 2.328125 -2.53125 C 2.453125 -2.375 2.554688 -2.195312 2.640625 -2 C 2.722656 -1.8125 2.765625 -1.585938 2.765625 -1.328125 C 2.765625 -0.878906 2.65625 -0.535156 2.4375 -0.296875 C 2.21875 -0.0546875 1.894531 0.0625 1.46875 0.0625 C 1.050781 0.0625 0.734375 -0.0546875 0.515625 -0.296875 C 0.296875 -0.535156 0.1875 -0.878906 0.1875 -1.328125 L 0.1875 -1.671875 L 1 -1.671875 L 1 -1.265625 C 1 -1.066406 1.039062 -0.925781 1.125 -0.84375 C 1.207031 -0.769531 1.316406 -0.734375 1.453125 -0.734375 C 1.585938 -0.734375 1.695312 -0.769531 1.78125 -0.84375 C 1.863281 -0.925781 1.90625 -1.066406 1.90625 -1.265625 C 1.90625 -1.453125 1.863281 -1.617188 1.78125 -1.765625 C 1.695312 -1.910156 1.585938 -2.046875 1.453125 -2.171875 C 1.328125 -2.304688 1.191406 -2.4375 1.046875 -2.5625 C 0.910156 -2.695312 0.773438 -2.835938 0.640625 -2.984375 C 0.515625 -3.140625 0.410156 -3.3125 0.328125 -3.5 C 0.242188 -3.695312 0.203125 -3.929688 0.203125 -4.203125 Z M 0.203125 -4.203125 "/></g></g></g><g fill="#737373" fill-opacity="1"><g transform="translate(41.346398, 29.773211)"><g><path d="M 0.0625 -5.53125 L 2.75 -5.53125 L 2.75 -4.734375 L 1.84375 -4.734375 L 1.84375 0 L 0.96875 0 L 0.96875 -4.734375 L 0.0625 -4.734375 Z M 0.0625 -5.53125 "/></g></g></g><g fill="#737373" fill-opacity="1"><g transform="translate(47.314865, 29.773211)"><g><path d="M 3.125 0 L 2.25 0 L 2.09375 -1 L 1.03125 -1 L 0.890625 0 L 0.09375 0 L 0.96875 -5.53125 L 2.234375 -5.53125 Z M 1.140625 -1.75 L 1.984375 -1.75 L 1.5625 -4.546875 Z M 1.140625 -1.75 "/></g></g></g><g fill="#737373" fill-opacity="1"><g transform="translate(53.685964, 29.773211)"><g><path d="M 1.140625 -5.53125 L 1.140625 -1.265625 C 1.140625 -1.066406 1.179688 -0.925781 1.265625 -0.84375 C 1.347656 -0.757812 1.457031 -0.71875 1.59375 -0.71875 C 1.726562 -0.71875 1.835938 -0.757812 1.921875 -0.84375 C 2.003906 -0.925781 2.046875 -1.066406 2.046875 -1.265625 L 2.046875 -5.53125 L 2.859375 -5.53125 L 2.859375 -1.3125 C 2.859375 -0.863281 2.75 -0.519531 2.53125 -0.28125 C 2.3125 -0.0390625 1.988281 0.078125 1.5625 0.078125 C 1.144531 0.078125 0.828125 -0.0390625 0.609375 -0.28125 C 0.390625 -0.519531 0.28125 -0.863281 0.28125 -1.3125 L 0.28125 -5.53125 Z M 1.140625 -5.53125 "/></g></g></g><g fill="#737373" fill-opacity="1"><g transform="translate(59.986009, 29.773211)"><g><path d="M 2.125 0 C 2.113281 -0.0390625 2.101562 -0.078125 2.09375 -0.109375 C 2.082031 -0.140625 2.070312 -0.175781 2.0625 -0.21875 C 2.0625 -0.269531 2.054688 -0.332031 2.046875 -0.40625 C 2.046875 -0.476562 2.046875 -0.566406 2.046875 -0.671875 L 2.046875 -1.546875 C 2.046875 -1.804688 2 -1.988281 1.90625 -2.09375 C 1.820312 -2.195312 1.679688 -2.25 1.484375 -2.25 L 1.1875 -2.25 L 1.1875 0 L 0.3125 0 L 0.3125 -5.53125 L 1.625 -5.53125 C 2.070312 -5.53125 2.394531 -5.421875 2.59375 -5.203125 C 2.800781 -4.992188 2.90625 -4.675781 2.90625 -4.25 L 2.90625 -3.8125 C 2.90625 -3.25 2.71875 -2.878906 2.34375 -2.703125 C 2.5625 -2.609375 2.710938 -2.457031 2.796875 -2.25 C 2.878906 -2.050781 2.921875 -1.804688 2.921875 -1.515625 L 2.921875 -0.671875 C 2.921875 -0.535156 2.925781 -0.414062 2.9375 -0.3125 C 2.945312 -0.207031 2.972656 -0.101562 3.015625 0 Z M 1.1875 -4.734375 L 1.1875 -3.03125 L 1.515625 -3.03125 C 1.679688 -3.03125 1.8125 -3.070312 1.90625 -3.15625 C 2 -3.25 2.046875 -3.40625 2.046875 -3.625 L 2.046875 -4.171875 C 2.046875 -4.367188 2.007812 -4.507812 1.9375 -4.59375 C 1.863281 -4.6875 1.753906 -4.734375 1.609375 -4.734375 Z M 1.1875 -4.734375 "/></g></g></g><g fill="#737373" fill-opacity="1"><g transform="translate(66.317636, 29.773211)"><g><path d="M 3.125 0 L 2.25 0 L 2.09375 -1 L 1.03125 -1 L 0.890625 0 L 0.09375 0 L 0.96875 -5.53125 L 2.234375 -5.53125 Z M 1.140625 -1.75 L 1.984375 -1.75 L 1.5625 -4.546875 Z M 1.140625 -1.75 "/></g></g></g><g fill="#737373" fill-opacity="1"><g transform="translate(72.688738, 29.773211)"><g><path d="M 1.09375 -4 L 1.09375 0 L 0.3125 0 L 0.3125 -5.53125 L 1.390625 -5.53125 L 2.28125 -2.21875 L 2.28125 -5.53125 L 3.0625 -5.53125 L 3.0625 0 L 2.171875 0 Z M 1.09375 -4 "/></g></g></g><g fill="#737373" fill-opacity="1"><g transform="translate(79.217739, 29.773211)"><g><path d="M 0.0625 -5.53125 L 2.75 -5.53125 L 2.75 -4.734375 L 1.84375 -4.734375 L 1.84375 0 L 0.96875 0 L 0.96875 -4.734375 L 0.0625 -4.734375 Z M 0.0625 -5.53125 "/></g></g></g></svg>