<svg width="110" height="110" viewBox="0 0 110 110" fill="none" xmlns="http://www.w3.org/2000/svg">
<g clip-path="url(#clip0_16_12724)">
<path d="M41.25 63.0208C30.525 63.0208 9.16669 68.3833 9.16669 79.0625V87.0833H73.3334V79.0625C73.3334 68.3833 51.975 63.0208 41.25 63.0208ZM19.8917 77.9167C23.7417 75.2583 33.0459 72.1875 41.25 72.1875C49.4542 72.1875 58.7584 75.2583 62.6084 77.9167H19.8917ZM41.25 55C50.0959 55 57.2917 47.8042 57.2917 38.9583C57.2917 30.1125 50.0959 22.9167 41.25 22.9167C32.4042 22.9167 25.2084 30.1125 25.2084 38.9583C25.2084 47.8042 32.4042 55 41.25 55ZM41.25 32.0833C45.0542 32.0833 48.125 35.1542 48.125 38.9583C48.125 42.7625 45.0542 45.8333 41.25 45.8333C37.4459 45.8333 34.375 42.7625 34.375 38.9583C34.375 35.1542 37.4459 32.0833 41.25 32.0833ZM73.5167 63.2958C78.8334 67.1458 82.5 72.2792 82.5 79.0625V87.0833H100.833V79.0625C100.833 69.8042 84.7917 64.5333 73.5167 63.2958ZM68.75 55C77.5959 55 84.7917 47.8042 84.7917 38.9583C84.7917 30.1125 77.5959 22.9167 68.75 22.9167C66.275 22.9167 63.9834 23.5125 61.875 24.5208C64.7625 28.6 66.4584 33.5958 66.4584 38.9583C66.4584 44.3208 64.7625 49.3167 61.875 53.3958C63.9834 54.4042 66.275 55 68.75 55Z" fill="#285D9A"/>
</g>
<defs>
<clipPath id="clip0_16_12724">
<rect width="110" height="110" fill="white"/>
</clipPath>
</defs>
</svg>
