<svg width="16" height="16" viewBox="0 0 16 16" fill="none" xmlns="http://www.w3.org/2000/svg">
<g clip-path="url(#clip0_1380_23181)">
<path d="M11.3332 10.0001H12.6666V11.3334H11.3332V10.0001ZM11.3332 7.33341H12.6666V8.66675H11.3332V7.33341ZM11.3332 4.66675H12.6666V6.00008H11.3332V4.66675ZM9.15991 4.66675L9.99991 5.22675V4.66675H9.15991Z" fill="#F1F1F1"/>
<path d="M6.66675 2V3.00667L8.00008 3.89333V3.33333H14.0001V12.6667H11.3334V14H15.3334V2H6.66675Z" fill="#F1F1F1"/>
<path d="M5.44675 3.80005L10.0001 6.83338V14H0.666748V6.98672L5.44675 3.80005ZM6.66675 12.6667H8.66675V7.44005L5.44675 5.39338L2.00008 7.58672V12.6667H4.00008V8.66672H6.66675V12.6667Z" fill="#F1F1F1"/>
</g>
<defs>
<clipPath id="clip0_1380_23181">
<rect width="16" height="16" fill="white"/>
</clipPath>
</defs>
</svg>
