<svg width="16" height="16" viewBox="0 0 16 16" fill="none" xmlns="http://www.w3.org/2000/svg">
<g clip-path="url(#clip0_1380_23186)">
<path d="M6.00008 8.66659C7.47341 8.66659 8.66675 7.47325 8.66675 5.99992C8.66675 4.52659 7.47341 3.33325 6.00008 3.33325C4.52675 3.33325 3.33341 4.52659 3.33341 5.99992C3.33341 7.47325 4.52675 8.66659 6.00008 8.66659ZM6.00008 4.66659C6.73341 4.66659 7.33341 5.26659 7.33341 5.99992C7.33341 6.73325 6.73341 7.33325 6.00008 7.33325C5.26675 7.33325 4.66675 6.73325 4.66675 5.99992C4.66675 5.26659 5.26675 4.66659 6.00008 4.66659ZM6.00008 9.99992C4.22008 9.99992 0.666748 10.8933 0.666748 12.6666V13.9999H11.3334V12.6666C11.3334 10.8933 7.78008 9.99992 6.00008 9.99992ZM2.00008 12.6666C2.14675 12.1866 4.20675 11.3333 6.00008 11.3333C7.80008 11.3333 9.86675 12.1933 10.0001 12.6666H2.00008ZM10.0534 4.69992C10.6134 5.48659 10.6134 6.50659 10.0534 7.29325L11.1734 8.41992C12.5201 7.07325 12.5201 5.03992 11.1734 3.57325L10.0534 4.69992ZM13.3801 1.33325L12.2934 2.41992C14.1401 4.43325 14.1401 7.45992 12.2934 9.57992L13.3801 10.6666C15.9801 8.07325 15.9867 4.03325 13.3801 1.33325Z" fill="#F1F1F1"/>
</g>
<defs>
<clipPath id="clip0_1380_23186">
<rect width="16" height="16" fill="white"/>
</clipPath>
</defs>
</svg>
