<svg width="24" height="25" viewBox="0 0 24 25" fill="none" xmlns="http://www.w3.org/2000/svg">
<g clip-path="url(#clip0_1278_8665)">
<path d="M9 13.5C11.21 13.5 13 11.71 13 9.5C13 7.29 11.21 5.5 9 5.5C6.79 5.5 5 7.29 5 9.5C5 11.71 6.79 13.5 9 13.5ZM9 7.5C10.1 7.5 11 8.4 11 9.5C11 10.6 10.1 11.5 9 11.5C7.9 11.5 7 10.6 7 9.5C7 8.4 7.9 7.5 9 7.5ZM9 15.5C6.33 15.5 1 16.84 1 19.5V21.5H17V19.5C17 16.84 11.67 15.5 9 15.5ZM3 19.5C3.22 18.78 6.31 17.5 9 17.5C11.7 17.5 14.8 18.79 15 19.5H3ZM15.08 7.55C15.92 8.73 15.92 10.26 15.08 11.44L16.76 13.13C18.78 11.11 18.78 8.06 16.76 5.86L15.08 7.55ZM20.07 2.5L18.44 4.13C21.21 7.15 21.21 11.69 18.44 14.87L20.07 16.5C23.97 12.61 23.98 6.55 20.07 2.5Z" fill="#F1F1F1"/>
</g>
<defs>
<clipPath id="clip0_1278_8665">
<rect width="24" height="24" fill="white" transform="translate(0 0.5)"/>
</clipPath>
</defs>
</svg>
