<svg width="48" height="48" viewBox="0 0 48 48" fill="none" xmlns="http://www.w3.org/2000/svg">
<path d="M26 30C28.2091 30 30 28.2091 30 26C30 23.7909 28.2091 22 26 22C23.7909 22 22 23.7909 22 26C22 28.2091 23.7909 30 26 30Z" fill="#F1F1F1"/>
<path d="M40 30C42.2091 30 44 28.2091 44 26C44 23.7909 42.2091 22 40 22C37.7909 22 36 23.7909 36 26C36 28.2091 37.7909 30 40 30Z" fill="#F1F1F1"/>
<path d="M12 30C14.2091 30 16 28.2091 16 26C16 23.7909 14.2091 22 12 22C9.79086 22 8 23.7909 8 26C8 28.2091 9.79086 30 12 30Z" fill="#F1F1F1"/>
</svg>
