<svg width="23" height="24" viewBox="0 0 23 24" fill="none" xmlns="http://www.w3.org/2000/svg">
<g clip-path="url(#clip0_1278_8668)">
<path d="M17.25 23.4999H10.9729C9.93794 23.4999 8.9221 23.0687 8.20335 22.3212L1.20752 15.0283L3.19127 13.2745C3.78544 12.7474 4.65752 12.642 5.3571 13.0158L7.66669 14.2424V5.09035C7.66669 3.76785 8.74002 2.69452 10.0625 2.69452C10.2254 2.69452 10.3884 2.71369 10.5513 2.74244C10.6375 1.4966 11.6725 0.509521 12.9375 0.509521C13.7617 0.509521 14.4804 0.921605 14.9117 1.5541C15.1896 1.4391 15.4963 1.3816 15.8125 1.3816C17.135 1.3816 18.2084 2.45494 18.2084 3.77744V4.04577C18.3617 4.01702 18.5246 3.99785 18.6875 3.99785C20.01 3.99785 21.0834 5.07119 21.0834 6.39369V19.6666C21.0834 21.7845 19.3679 23.4999 17.25 23.4999ZM3.96752 15.1433L9.58335 20.9891C9.94752 21.3629 10.4459 21.5833 10.9634 21.5833H17.25C18.3042 21.5833 19.1667 20.7208 19.1667 19.6666V6.39369C19.1667 6.12535 18.9559 5.91452 18.6875 5.91452C18.4192 5.91452 18.2084 6.12535 18.2084 6.39369V11.9999H16.2917V3.77744C16.2917 3.5091 16.0809 3.29827 15.8125 3.29827C15.5442 3.29827 15.3334 3.5091 15.3334 3.77744V11.9999H13.4167V2.90535C13.4167 2.63702 13.2059 2.42619 12.9375 2.42619C12.6692 2.42619 12.4584 2.63702 12.4584 2.90535V11.9999H10.5417V5.09035C10.5417 4.82202 10.3309 4.61119 10.0625 4.61119C9.79419 4.61119 9.58335 4.8316 9.58335 5.09035V17.4241L4.45627 14.712L3.96752 15.1433Z" fill="#F1F1F1"/>
</g>
<defs>
<clipPath id="clip0_1278_8668">
<rect width="23" height="23" fill="white" transform="translate(0 0.5)"/>
</clipPath>
</defs>
</svg>
