<svg width="8" height="9" viewBox="0 0 8 9" fill="none" xmlns="http://www.w3.org/2000/svg">
<path d="M4 8.5C6.20938 8.5 8 6.70938 8 4.5C8 2.29063 6.20938 0.5 4 0.5C1.79063 0.5 0 2.29063 0 4.5C0 6.70938 1.79063 8.5 4 8.5ZM4.375 6.125C4.375 6.33125 4.20625 6.5 4 6.5C3.79375 6.5 3.625 6.33203 3.625 6.125L3.625 4.125C3.625 3.91797 3.79297 3.75 4 3.75C4.20703 3.75 4.375 3.91719 4.375 4.125V6.125ZM4 2.25C4.27125 2.25 4.49125 2.47 4.49125 2.74125C4.49125 3.0125 4.27141 3.2325 4 3.2325C3.72859 3.2325 3.50875 3.0125 3.50875 2.74125C3.50938 2.47031 3.72813 2.25 4 2.25Z" fill="#2F913F"/>
</svg>
