<svg width="24" height="25" viewBox="0 0 24 25" fill="none" xmlns="http://www.w3.org/2000/svg">
<g clip-path="url(#clip0_1278_8667)">
<path d="M12 5.5C8.13 5.5 5 8.63 5 12.5H7C7 9.74 9.24 7.5 12 7.5C14.76 7.5 17 9.74 17 12.5H19C19 8.63 15.87 5.5 12 5.5ZM13 14.79C13.88 14.4 14.5 13.53 14.5 12.5C14.5 11.12 13.38 10 12 10C10.62 10 9.5 11.12 9.5 12.5C9.5 13.52 10.12 14.4 11 14.79V18.09L7.59 21.5L9 22.91L12 19.91L15 22.91L16.41 21.5L13 18.09V14.79ZM12 1.5C5.93 1.5 1 6.43 1 12.5H3C3 7.53 7.03 3.5 12 3.5C16.97 3.5 21 7.53 21 12.5H23C23 6.43 18.07 1.5 12 1.5Z" fill="#F1F1F1"/>
</g>
<defs>
<clipPath id="clip0_1278_8667">
<rect width="24" height="24" fill="white" transform="translate(0 0.5)"/>
</clipPath>
</defs>
</svg>
