<svg width="23" height="24" viewBox="0 0 23 24" fill="none" xmlns="http://www.w3.org/2000/svg">
<g clip-path="url(#clip0_1_264)">
<path d="M17.25 23.5001H10.9729C9.93794 23.5001 8.9221 23.0688 8.20335 22.3213L1.20752 15.0284L3.19127 13.2746C3.78544 12.7476 4.65752 12.6421 5.3571 13.0159L7.66669 14.2426V5.09048C7.66669 3.76798 8.74002 2.69464 10.0625 2.69464C10.2254 2.69464 10.3884 2.71381 10.5513 2.74256C10.6375 1.49673 11.6725 0.509644 12.9375 0.509644C13.7617 0.509644 14.4804 0.921727 14.9117 1.55423C15.1896 1.43923 15.4963 1.38173 15.8125 1.38173C17.135 1.38173 18.2084 2.45506 18.2084 3.77756V4.04589C18.3617 4.01714 18.5246 3.99798 18.6875 3.99798C20.01 3.99798 21.0834 5.07131 21.0834 6.39381V19.6667C21.0834 21.7846 19.3679 23.5001 17.25 23.5001ZM3.96752 15.1434L9.58335 20.9892C9.94752 21.363 10.4459 21.5834 10.9634 21.5834H17.25C18.3042 21.5834 19.1667 20.7209 19.1667 19.6667V6.39381C19.1667 6.12548 18.9559 5.91464 18.6875 5.91464C18.4192 5.91464 18.2084 6.12548 18.2084 6.39381V12.0001H16.2917V3.77756C16.2917 3.50923 16.0809 3.29839 15.8125 3.29839C15.5442 3.29839 15.3334 3.50923 15.3334 3.77756V12.0001H13.4167V2.90548C13.4167 2.63714 13.2059 2.42631 12.9375 2.42631C12.6692 2.42631 12.4584 2.63714 12.4584 2.90548V12.0001H10.5417V5.09048C10.5417 4.82214 10.3309 4.61131 10.0625 4.61131C9.79419 4.61131 9.58335 4.83173 9.58335 5.09048V17.4242L4.45627 14.7121L3.96752 15.1434Z" fill="#285D9A"/>
</g>
<defs>
<clipPath id="clip0_1_264">
<rect width="23" height="23" fill="white" transform="translate(0 0.5)"/>
</clipPath>
</defs>
</svg>
