<svg width="260" height="190" xmlns="http://www.w3.org/2000/svg">

 <g>
  <title>Layer 1</title>
  <g id="svg_1">
   <rect x="0" y="0" fill="none" height="260" width="260" data-name="Rectangle 492" id="Rectangle_492"/>
   <path fill="#263346" d="m49.06402,222.23001a13.343,13.343 0 0 1 -5.2,-0.918a7.78,7.78 0 0 1 -3.3,-2.414a5.661,5.661 0 0 1 -1.19,-3.23a0.7,0.7 0 0 1 0.714,-0.714l3.026,0a0.941,0.941 0 0 1 0.612,0.17a1.3,1.3 0 0 1 0.442,0.476a3.465,3.465 0 0 0 1.564,1.938a6.145,6.145 0 0 0 3.332,0.782a6.835,6.835 0 0 0 3.638,-0.782a2.559,2.559 0 0 0 1.22,-2.248a2.059,2.059 0 0 0 -0.646,-1.564a4.954,4.954 0 0 0 -1.87,-1.054q-1.224,-0.442 -3.672,-1.088a14.48,14.48 0 0 1 -5.882,-2.516a5.674,5.674 0 0 1 -1.83,-4.518a6.023,6.023 0 0 1 1.054,-3.5a7.289,7.289 0 0 1 3.094,-2.414a11.8,11.8 0 0 1 4.726,-0.884a10.994,10.994 0 0 1 4.828,0.986a7.854,7.854 0 0 1 3.094,2.482a5.311,5.311 0 0 1 1.156,2.924a0.7,0.7 0 0 1 -0.714,0.714l-3.164,0a0.985,0.985 0 0 1 -0.986,-0.646a2.7,2.7 0 0 0 -1.36,-1.8a5.148,5.148 0 0 0 -2.856,-0.748a5.409,5.409 0 0 0 -2.992,0.714a2.328,2.328 0 0 0 -1.088,2.074a2.266,2.266 0 0 0 0.544,1.564a4.581,4.581 0 0 0 1.7,1.088a30.385,30.385 0 0 0 3.4,1.054a23.039,23.039 0 0 1 4.76,1.53a6.263,6.263 0 0 1 2.652,2.142a5.89,5.89 0 0 1 0.85,3.3a6.171,6.171 0 0 1 -1.224,3.808a7.435,7.435 0 0 1 -3.4,2.448a13.763,13.763 0 0 1 -5.032,0.844zm20.794,0a8.466,8.466 0 0 1 -5.984,-2.074a7.924,7.924 0 0 1 -2.346,-5.746l-0.034,-1.36l0.034,-1.36a7.924,7.924 0 0 1 2.346,-5.746a8.466,8.466 0 0 1 5.984,-2.074a9.656,9.656 0 0 1 4.488,0.952a6.807,6.807 0 0 1 2.754,2.346a5.194,5.194 0 0 1 0.986,2.584a0.647,0.647 0 0 1 -0.238,0.578a0.786,0.786 0 0 1 -0.578,0.238l-2.991,0a0.964,0.964 0 0 1 -0.544,-0.136a1.881,1.881 0 0 1 -0.34,-0.544a3.907,3.907 0 0 0 -1.36,-1.9a3.568,3.568 0 0 0 -2.108,-0.578a3.433,3.433 0 0 0 -2.72,1.122a5.076,5.076 0 0 0 -1.054,3.332l-0.034,1.258l0.034,1.122q0.136,4.453 3.774,4.454a3.631,3.631 0 0 0 2.142,-0.578a4.016,4.016 0 0 0 1.326,-1.9a1.408,1.408 0 0 1 0.34,-0.51a0.824,0.824 0 0 1 0.544,-0.17l2.992,0a0.786,0.786 0 0 1 0.578,0.238a0.647,0.647 0 0 1 0.238,0.578a5.312,5.312 0 0 1 -0.952,2.55a7.206,7.206 0 0 1 -2.72,2.346a9.545,9.545 0 0 1 -4.556,0.978l-0.001,0zm12.624,-0.34a0.813,0.813 0 0 1 -0.816,-0.816l0,-22.508a0.72,0.72 0 0 1 0.238,-0.578a0.786,0.786 0 0 1 0.578,-0.238l3.026,0a0.813,0.813 0 0 1 0.816,0.816l0,7.752a6.8,6.8 0 0 1 5.508,-2.448a6.4,6.4 0 0 1 5,2.074a7.938,7.938 0 0 1 1.87,5.576l0,9.554a0.787,0.787 0 0 1 -0.238,0.578a0.719,0.719 0 0 1 -0.578,0.238l-3.064,0a0.813,0.813 0 0 1 -0.816,-0.816l0,-9.35a4.449,4.449 0 0 0 -0.986,-3.094a3.452,3.452 0 0 0 -2.788,-1.122a3.73,3.73 0 0 0 -2.856,1.122a4.339,4.339 0 0 0 -1.054,3.094l0,9.35a0.787,0.787 0 0 1 -0.238,0.578a0.719,0.719 0 0 1 -0.578,0.238l-3.024,0zm28.149,0.34a8.275,8.275 0 0 1 -6.018,-2.176a8.816,8.816 0 0 1 -2.346,-6.188l-0.034,-0.85l0.034,-0.85a8.8,8.8 0 0 1 2.38,-6.086a8.159,8.159 0 0 1 5.984,-2.21a7.845,7.845 0 0 1 6.191,2.448a9.372,9.372 0 0 1 2.21,6.528l0,0.714a0.787,0.787 0 0 1 -0.238,0.578a0.827,0.827 0 0 1 -0.612,0.238l-11.291,0l0,0.272a5.535,5.535 0 0 0 1.02,3.162a3.229,3.229 0 0 0 2.686,1.258a3.9,3.9 0 0 0 3.23,-1.564a2.27,2.27 0 0 1 0.476,-0.476a1.32,1.32 0 0 1 0.578,-0.1l2.924,0a0.692,0.692 0 0 1 0.51,0.2a0.52,0.52 0 0 1 0.238,0.442a3.2,3.2 0 0 1 -0.986,1.938a7.967,7.967 0 0 1 -2.754,1.9a10.049,10.049 0 0 1 -4.182,0.822zm3.774,-10.71l0,-0.1a4.881,4.881 0 0 0 -1.02,-3.23a3.71,3.71 0 0 0 -5.508,0a4.994,4.994 0 0 0 -0.986,3.23l0,0.1l7.514,0zm14.8,10.71a6.464,6.464 0 0 1 -5.27,-2.21a9.485,9.485 0 0 1 -1.972,-5.882l-0.034,-1.122l0.034,-1.088a9.326,9.326 0 0 1 1.938,-5.814a7.31,7.31 0 0 1 10.54,0l0,-7.548a0.72,0.72 0 0 1 0.238,-0.578a0.785,0.785 0 0 1 0.578,-0.238l2.89,0a0.813,0.813 0 0 1 0.816,0.816l0,22.508a0.786,0.786 0 0 1 -0.238,0.578a0.718,0.718 0 0 1 -0.578,0.238l-2.691,0a0.813,0.813 0 0 1 -0.816,-0.816l0,-1.258a6.582,6.582 0 0 1 -5.44,2.414l0.005,0zm1.258,-3.638a3.431,3.431 0 0 0 2.924,-1.258a5.507,5.507 0 0 0 1.054,-3.094q0.034,-0.408 0.034,-1.326q0,-0.884 -0.034,-1.292a4.585,4.585 0 0 0 -1.088,-2.89a3.492,3.492 0 0 0 -2.89,-1.224q-3.672,0 -3.91,4.522l-0.034,1.02l0.034,1.02q0.233,4.52 3.905,4.52l0.005,0.002zm19.594,3.638a6.239,6.239 0 0 1 -4.93,-2.04a8.257,8.257 0 0 1 -1.8,-5.61l0,-9.554a0.813,0.813 0 0 1 0.816,-0.816l2.992,0a0.813,0.813 0 0 1 0.816,0.816l0,9.35q0,4.217 3.706,4.216a3.58,3.58 0 0 0 2.788,-1.122a4.342,4.342 0 0 0 1.054,-3.094l0,-9.35a0.813,0.813 0 0 1 0.816,-0.816l2.992,0a0.813,0.813 0 0 1 0.816,0.816l0,16.048a0.79,0.79 0 0 1 -0.238,0.578a0.719,0.719 0 0 1 -0.578,0.238l-2.754,0a0.813,0.813 0 0 1 -0.816,-0.816l0,-1.394a6.636,6.636 0 0 1 -5.685,2.55l0.005,0zm15.4,-0.34a0.813,0.813 0 0 1 -0.816,-0.816l0,-22.508a0.719,0.719 0 0 1 0.238,-0.578a0.786,0.786 0 0 1 0.578,-0.238l2.822,0a0.813,0.813 0 0 1 0.816,0.816l0,22.508a0.786,0.786 0 0 1 -0.238,0.578a0.719,0.719 0 0 1 -0.578,0.238l-2.822,0zm8.828,-20.6a0.813,0.813 0 0 1 -0.816,-0.816l0,-2.448a0.813,0.813 0 0 1 0.816,-0.816l3.094,0a0.786,0.786 0 0 1 0.578,0.238a0.742,0.742 0 0 1 0.272,0.578l0,2.448a0.786,0.786 0 0 1 -0.238,0.578a0.828,0.828 0 0 1 -0.612,0.238l-3.094,0zm0.137,20.6a0.813,0.813 0 0 1 -0.816,-0.816l0,-16.048a0.813,0.813 0 0 1 0.816,-0.816l2.822,0a0.813,0.813 0 0 1 0.816,0.816l0,16.048a0.786,0.786 0 0 1 -0.238,0.578a0.719,0.719 0 0 1 -0.578,0.238l-2.822,0zm8.965,0a0.813,0.813 0 0 1 -0.816,-0.816l0,-16.048a0.813,0.813 0 0 1 0.816,-0.816l2.788,0a0.813,0.813 0 0 1 0.816,0.816l0,1.394a6.806,6.806 0 0 1 5.678,-2.55a6.294,6.294 0 0 1 4.964,2.074a8.03,8.03 0 0 1 1.836,5.576l0,9.554a0.786,0.786 0 0 1 -0.238,0.578a0.719,0.719 0 0 1 -0.578,0.238l-2.992,0a0.813,0.813 0 0 1 -0.816,-0.816l0,-9.35a4.45,4.45 0 0 0 -0.986,-3.094a3.453,3.453 0 0 0 -2.788,-1.122a3.731,3.731 0 0 0 -2.856,1.122a4.429,4.429 0 0 0 -1.02,3.094l0,9.35a0.786,0.786 0 0 1 -0.238,0.578a0.719,0.719 0 0 1 -0.578,0.238l-2.992,0zm28.391,7.48a10.2,10.2 0 0 1 -4.9,-1.02a6.557,6.557 0 0 1 -2.652,-2.278a4.481,4.481 0 0 1 -0.782,-2.21a0.748,0.748 0 0 1 0.238,-0.544a0.864,0.864 0 0 1 0.578,-0.238l2.962,0a0.9,0.9 0 0 1 0.51,0.136a1.123,1.123 0 0 1 0.374,0.578a3.512,3.512 0 0 0 1.088,1.53a3.744,3.744 0 0 0 2.414,0.646a3.452,3.452 0 0 0 3.978,-4.08l0,-2.312a7.469,7.469 0 0 1 -10.574,0.034a9.583,9.583 0 0 1 -1.9,-5.848l-0.034,-0.918l0.034,-0.918a9.5,9.5 0 0 1 1.938,-5.814a6.4,6.4 0 0 1 5.3,-2.244a6.99,6.99 0 0 1 3.162,0.68a6.528,6.528 0 0 1 2.278,1.87l0,-1.36a0.828,0.828 0 0 1 0.238,-0.612a0.784,0.784 0 0 1 0.578,-0.238l2.754,0a0.743,0.743 0 0 1 0.578,0.272a0.79,0.79 0 0 1 0.238,0.578l0.034,16.388a7.835,7.835 0 0 1 -2.108,5.848q-2.11,2.074 -6.325,2.074l0.001,0zm-0.17,-11.186a3.434,3.434 0 0 0 2.89,-1.224a5.108,5.108 0 0 0 1.088,-2.992c0.022,-0.181 0.034,-0.555 0.034,-1.122c0,-0.544 -0.012,-0.907 -0.034,-1.088a5.157,5.157 0 0 0 -1.088,-3.026a3.434,3.434 0 0 0 -2.89,-1.224q-3.672,0 -3.876,4.522l-0.034,0.816a7.675,7.675 0 0 0 0.85,3.876a3.282,3.282 0 0 0 3.059,1.462l0.001,0z" data-name="Path 228" id="Path_228"/>
   <g data-name="Group 27" id="Group_27">
    <rect x="97.79199" y="99.07104" fill="#21bdca" rx="2" height="20.117" width="20.117" data-name="Rectangle 254" id="Rectangle_254"/>
    <rect x="130.29199" y="99.07104" fill="#21bdca" rx="2" height="20.117" width="20.117" data-name="Rectangle 253" id="Rectangle_253"/>
    <rect x="97.79199" y="127.07104" fill="#21bdca" rx="2" height="20.117" width="20.117" data-name="Rectangle 255" id="Rectangle_255"/>
    <g data-name="Group 26" id="Group_26">
     <g fill="none" data-name="Union 1" id="Union_1">
      <path id="svg_2" d="m72.79199,170.63a10,10 0 0 1 -10,-10l0,-105a10,10 0 0 1 10,-10l24.3,0l0,-7a8,8 0 0 1 8,-8l1.153,0a8,8 0 0 1 8,8l0,7l32.161,0l0,-7a8,8 0 0 1 8,-8l1.151,0a8,8 0 0 1 8,8l0,7l23.235,0a10,10 0 0 1 10,10l0,105a10,10 0 0 1 -10,10l-114,0z"/>
      <path id="svg_3" fill="#1b2f88" d="m179.79248,153.62927l0,-90.99964l-16.2334,0l-17,0l-0.15039,0l-32.16065,0l-17,0l-0.15185,0l-17.3042,0l0,90.99964l100.00049,0m6.99951,17l-113.99951,0c-5.52344,0 -10.00049,-4.4773 -10.00049,-9.9989l0,-105.00025c0,-5.52331 4.47705,-10.00049 10.00049,-10.00049l24.30371,0l0,-7.00024c0,-4.41736 3.58057,-7.99988 7.99951,-7.99988l1.15283,0c4.41748,0 7.99951,3.58252 7.99951,7.99988l0,7.00024l32.16065,0l0,-7.00024c0,-4.41736 3.58105,-7.99988 8,-7.99988l1.15088,0c4.41894,0 7.99951,3.58252 7.99951,7.99988l0,7.00024l23.23291,0c5.52344,0 10.00049,4.47718 10.00049,10.00049l0,105.00025c0,5.5216 -4.47705,9.9989 -10.00049,9.9989z"/>
     </g>
     <path stroke-width="17" stroke="#1b2f88" fill="none" d="m74.59317,81.43l107.2,0" data-name="Path 237" id="Path_237"/>
    </g>
   </g>
  </g>
 </g>
</svg>
