<svg xmlns="http://www.w3.org/2000/svg" width="260" height="260" viewBox="30 25 200 100">
  <g id="Working_Time" data-name="Working Time" transform="translate(-5827.25 -6195.322)">
    <rect id="Rectangle_524" data-name="Rectangle 524" width="260" height="260" transform="translate(5827.25 6195.322)" fill="none"/>
    <g id="Group_2091" data-name="Group 2091">
      <g id="Group_421" data-name="Group 421" transform="translate(5883.27 6222.105)">
        <path id="Path_382" data-name="Path 382" d="M81.613,42.861A33.346,33.346,0,1,1,54.29,51.323l-6.738-6.738A42.856,42.856,0,1,0,72.089,33.266V61.979h9.523Z" transform="translate(-2.665 -2.569)" fill="#5473e8"/>
        <path id="Path_383" data-name="Path 383" d="M58.2,62.372a4.762,4.762,0,0,0,0,6.733L71.666,82.576A4.762,4.762,0,0,0,78.4,75.843L64.924,62.372a4.756,4.756,0,0,0-6.728,0Z" transform="translate(-4.451 -4.762)" fill="#21bdca"/>
        <path id="Path_384" data-name="Path 384" d="M20.109,40.572A62.324,62.324,0,0,0,13.249,56.3L1.433,56.091A.922.922,0,0,0,.495,57L0,84.829a.923.923,0,0,0,.905.938l11.312.2A62.293,62.293,0,0,0,18.3,102.781l-8.192,8.158a.922.922,0,0,0,0,1.3l19.642,19.723a.921.921,0,0,0,1.3,0l7.059-7.029a62.412,62.412,0,0,0,19.593,8.984l-.194,11.569a.922.922,0,0,0,.906.937l27.832.464a.921.921,0,0,0,.937-.905l.193-11.533a62.357,62.357,0,0,0,19.692-8.136l7.563,7.579a.922.922,0,0,0,1.3,0l19.7-19.662a.924.924,0,0,0,0-1.305l-7.911-7.928a62.283,62.283,0,0,0,6.412-15.2l11.884.211a.92.92,0,0,0,.938-.9l.494-27.832a.921.921,0,0,0-.905-.938l-11.579-.205a62.351,62.351,0,0,0-7.864-19.657l8.17-8.136a.922.922,0,0,0,0-1.3L115.643,11.314a.921.921,0,0,0-1.3,0l-8.285,8.25A62.308,62.308,0,0,0,90.3,12.785l.19-11.366a.922.922,0,0,0-.906-.938L73.731.217V21.605c.257,0,.514,0,.772.007a51.621,51.621,0,1,1-46.163,26.81Z" transform="translate(0)" fill="#1b2f88" fill-rule="evenodd"/>
      </g>
    </g>
  </g>
</svg>
