<svg xmlns="http://www.w3.org/2000/svg" width="260" height="260" viewBox="55 25 150 150">
  <g id="My_Task" data-name="My Task" transform="translate(-8272 -306)">
    <rect id="Rectangle_507" data-name="Rectangle 507" width="260" height="260" transform="translate(8272 306)" fill="none"/>
    <g id="Group_2300" data-name="Group 2300">
      <g id="Group_2299" data-name="Group 2299">
        <g id="Icon_feather-check-square" data-name="Icon feather-check-square" transform="translate(8355.701 378.5)">
          <path id="Path_5251" data-name="Path 5251" d="M13.5,16.5,18,21,33,6" fill="none" stroke="#21bdca" stroke-linecap="round" stroke-linejoin="round" stroke-width="5"/>
          <path id="Path_5252" data-name="Path 5252" d="M31.5,18V28.5a3,3,0,0,1-3,3H7.5a3,3,0,0,1-3-3V7.5a3,3,0,0,1,3-3H24" fill="none" stroke="#21bdca" stroke-linecap="round" stroke-linejoin="round" stroke-width="5"/>
        </g>
        <g id="Group_2296" data-name="Group 2296" transform="translate(-130 168)">
          <g id="Rectangle_709" data-name="Rectangle 709" transform="translate(8468 177)" fill="none" stroke="#1b2f88" stroke-width="10">
            <rect width="129" height="129" rx="5" stroke="none"/>
            <rect x="5" y="5" width="119" height="119" fill="none"/>
          </g>
          <g id="Group_2295" data-name="Group 2295">
            <path id="Path_5243" data-name="Path 5243" d="M-320.8-4743.621h43.847" transform="translate(8811 4942)" fill="none" stroke="#1b2f88" stroke-linecap="round" stroke-width="10"/>
            <g id="Group_2294" data-name="Group 2294">
              <path id="Path_5246" data-name="Path 5246" d="M-320.8-4743.621h24.526" transform="translate(8852.799 4972.121)" fill="none" stroke="#1b2f88" stroke-linecap="round" stroke-width="8"/>
              <path id="Path_5248" data-name="Path 5248" d="M-320.8-4743.621h24.526" transform="translate(8853.299 5012)" fill="none" stroke="#1b2f88" stroke-linecap="round" stroke-width="8"/>
              <path id="Path_5247" data-name="Path 5247" d="M-320.8-4743.621h42.772" transform="translate(8853.299 4985.121)" fill="none" stroke="#1b2f88" stroke-linecap="round" stroke-width="8"/>
              <path id="Path_5249" data-name="Path 5249" d="M-320.8-4743.621h42.772" transform="translate(8853.299 5025.121)" fill="none" stroke="#1b2f88" stroke-linecap="round" stroke-width="8"/>
            </g>
            <path id="Path_5244" data-name="Path 5244" d="M-320.8-4743.621h.314" transform="translate(8896.071 4942)" fill="none" stroke="#1b2f88" stroke-linecap="round" stroke-width="10"/>
            <path id="Path_5245" data-name="Path 5245" d="M-320.8-4743.621h.314" transform="translate(8881.071 4942)" fill="none" stroke="#1b2f88" stroke-linecap="round" stroke-width="10"/>
          </g>
        </g>
        <g id="Icon_feather-check-square-2" data-name="Icon feather-check-square" transform="translate(8355.701 420.5)">
          <path id="Path_5251-2" data-name="Path 5251" d="M13.5,16.5,18,21,33,6" fill="none" stroke="#21bdca" stroke-linecap="round" stroke-linejoin="round" stroke-width="5"/>
          <path id="Path_5252-2" data-name="Path 5252" d="M31.5,18V28.5a3,3,0,0,1-3,3H7.5a3,3,0,0,1-3-3V7.5a3,3,0,0,1,3-3H24" fill="none" stroke="#21bdca" stroke-linecap="round" stroke-linejoin="round" stroke-width="5"/>
        </g>
      </g>
    </g>
  </g>
</svg>
